<?xml version="1.0" encoding="UTF-8" standalone="no"?>
<svg
   width="256"
   height="256"
   viewBox="0 0 256 256"
   fill="none"
   version="1.1"
   id="svg5"
   xmlns="http://www.w3.org/2000/svg"
   xmlns:svg="http://www.w3.org/2000/svg">
  <defs
     id="defs5" />
  <g
     id="g5"
     transform="scale(1.2190476)">
    <path
       d="M 0,0 V 210 H 210 V 0 Z"
       fill="#ffffff"
       id="path1" />
    <path
       d="M 164.432,164.432 H 169 V 169 h -4.568 z m -27.405,0 h 4.567 V 169 h -4.567 z m -9.135,0 h 4.567 V 169 h -4.567 z m -4.568,0 h 4.568 V 169 h -4.568 z m -4.567,0 h 4.567 V 169 h -4.567 z m -9.135,0 h 4.567 V 169 h -4.567 z m -9.136,0 h 4.568 V 169 h -4.568 z m -18.2698,0 h 4.5675 V 169 h -4.5675 z m -18.2703,0 h 4.5675 V 169 h -4.5675 z m -13.7027,0 h 4.5676 V 169 h -4.5676 z m -9.1351,0 h 4.5675 V 169 h -4.5675 z m -4.5676,0 h 4.5676 V 169 h -4.5676 z m -9.1351,0 H 31.973 V 169 h -4.5676 z m -4.5676,0 h 4.5676 V 169 h -4.5676 z m -4.5675,0 h 4.5675 V 169 h -4.5675 z m -4.5676,0 h 4.5676 V 169 h -4.5676 z m -4.56757,0 H 13.7027 V 169 H 9.13513 Z m -4.56756,0 H 9.13513 V 169 H 4.56757 Z M 0,164.432 H 4.56757 V 169 H 5.72205e-6 Z m 164.432,-4.567 H 169 v 4.567 h -4.568 z m -4.567,0 h 4.567 v 4.567 h -4.567 z m -9.135,0 h 4.567 v 4.567 h -4.567 z m -9.136,0 h 4.568 v 4.567 h -4.568 z m -4.567,0 h 4.567 v 4.567 h -4.567 z m -9.135,0 h 4.567 v 4.567 h -4.567 z m -9.135,0 h 4.567 v 4.567 h -4.567 z m -22.8382,0 h 4.5672 v 4.567 h -4.5672 z m -9.1351,0 h 4.5676 v 4.567 h -4.5676 z m -4.5675,0 h 4.5675 v 4.567 h -4.5675 z m -13.7027,0 h 4.5675 v 4.567 h -4.5675 z m -4.5676,0 h 4.5676 v 4.567 h -4.5676 z m -4.5675,0 h 4.5675 v 4.567 h -4.5675 z m -13.7027,0 h 4.5675 v 4.567 h -4.5675 z m -18.2703,0 h 4.5676 v 4.567 h -4.5676 z m -27.4053656677,0 H 4.5676 v 4.567 H 3.43323e-5 Z M 164.432,155.297 H 169 v 4.568 h -4.568 z m -18.27,0 h 4.568 v 4.568 h -4.568 z m -9.135,0 h 4.567 v 4.568 h -4.567 z m -9.135,0 h 4.567 v 4.568 h -4.567 z m -9.135,0 h 4.567 v 4.568 h -4.567 z m -9.135,0 h 4.567 v 4.568 h -4.567 z m -18.2707,0 h 4.5676 v 4.568 h -4.5676 z m -9.1351,0 h 4.5675 v 4.568 h -4.5675 z m -22.8378,0 h 4.5675 v 4.568 h -4.5675 z m -4.5676,0 h 4.5676 v 4.568 h -4.5676 z m -18.2703,0 h 4.5676 v 4.568 h -4.5676 z m -9.1351,0 h 4.5676 v 4.568 h -4.5676 z m -9.1351,0 h 4.5676 v 4.568 h -4.5676 z m -4.5676,0 h 4.5676 v 4.568 h -4.5676 z m -4.56754,0 h 4.56754 v 4.568 H 9.13513 Z m -9.1351256677,0 H 4.5676 v 4.568 H 3.43323e-5 Z M 164.432,150.73 H 169 v 4.567 h -4.568 z m -13.702,0 h 4.567 v 4.567 h -4.567 z m -9.135,0 h 4.567 v 4.567 h -4.567 z m -9.136,0 h 4.568 v 4.567 h -4.568 z m -9.135,0 h 4.568 v 4.567 h -4.568 z m -9.135,0 h 4.568 v 4.567 h -4.568 z m -18.2701,0 h 4.5671 v 4.567 h -4.5671 z m -4.5676,0 h 4.5676 v 4.567 h -4.5676 z m -13.7027,0 h 4.5676 v 4.567 h -4.5676 z m -9.1351,0 h 4.5675 v 4.567 h -4.5675 z m -4.5676,0 h 4.5676 v 4.567 h -4.5676 z m -4.5675,0 h 4.5675 v 4.567 h -4.5675 z m -9.1352,0 h 4.5676 v 4.567 h -4.5676 z m -4.5675,0 h 4.5675 v 4.567 h -4.5675 z m -18.2703,0 h 4.5676 v 4.567 h -4.5676 z m -9.1351,0 h 4.5676 v 4.567 h -4.5676 z m -4.5676,0 h 4.5676 v 4.567 h -4.5676 z m -4.56753,0 h 4.56753 v 4.567 H 9.13513 Z m -9.1351242236,0 H 4.56761 v 4.567 H 4.57764e-5 Z M 164.432,146.162 H 169 v 4.568 h -4.568 z m -9.135,0 h 4.568 v 4.568 h -4.568 z m -9.135,0 h 4.568 v 4.568 h -4.568 z m -4.567,0 h 4.567 v 4.568 h -4.567 z m -4.568,0 h 4.568 v 4.568 h -4.568 z m -4.568,0 h 4.568 v 4.568 h -4.568 z m -4.567,0 h 4.567 v 4.568 h -4.567 z m -9.135,0 h 4.567 v 4.568 h -4.567 z m -9.135,0 h 4.567 v 4.568 h -4.567 z m -22.8382,0 h 4.5675 v 4.568 h -4.5675 z m -4.5676,0 h 4.5676 v 4.568 h -4.5676 z m -9.1351,0 h 4.5675 v 4.568 h -4.5675 z m -9.1352,0 h 4.5676 v 4.568 h -4.5676 z m -4.5675,0 h 4.5675 v 4.568 h -4.5675 z m -9.1351,0 h 4.5675 v 4.568 h -4.5675 z m -4.5676,0 h 4.5675 v 4.568 h -4.5675 z m -9.1351,0 h 4.5675 v 4.568 h -4.5675 z m -9.1352,0 h 4.5676 v 4.568 h -4.5676 z m -9.1351,0 h 4.5676 v 4.568 h -4.5676 z m -4.5675,0 h 4.5675 v 4.568 h -4.5675 z m -4.56762,0 h 4.56762 v 4.568 H 9.13513 Z m -9.1351265942,0 H 4.56762 v 4.568 H 5.91278e-5 Z M 164.432,141.595 H 169 v 4.567 h -4.568 z m -4.567,0 h 4.567 v 4.567 h -4.567 z m -9.135,0 h 4.567 v 4.567 h -4.567 z m -4.568,0 h 4.568 v 4.567 h -4.568 z m -18.27,0 h 4.567 v 4.567 h -4.567 z m -4.568,0 h 4.568 v 4.567 h -4.568 z m -4.567,0 h 4.567 v 4.567 h -4.567 z m -9.135,0 h 4.567 v 4.567 h -4.567 z m -4.568,0 h 4.568 v 4.567 h -4.568 z m -13.7027,0 h 4.5676 v 4.567 h -4.5676 z m -4.5675,0 h 4.5676 v 4.567 h -4.5676 z m -9.1351,0 h 4.5675 v 4.567 h -4.5675 z m -9.1352,0 h 4.5676 v 4.567 h -4.5676 z m -9.1351,0 h 4.5676 v 4.567 h -4.5676 z m -4.5675,0 h 4.5675 v 4.567 h -4.5675 z m -13.7028,0 h 4.5676 v 4.567 h -4.5675 z m -13.7026,0 h 4.5675 v 4.567 h -4.5675 z m -27.4054198914,0 H 4.56765 v 4.567 H 8.58307e-5 Z M 159.865,137.027 h 4.567 v 4.568 h -4.567 z m -4.568,0 h 4.568 v 4.568 h -4.568 z m -9.135,0 h 4.568 v 4.568 h -4.568 z m -9.135,0 h 4.568 v 4.568 h -4.568 z m -9.135,0 h 4.567 v 4.568 h -4.567 z m -9.135,0 h 4.567 v 4.568 h -4.567 z m -9.135,0 h 4.567 v 4.568 h -4.567 z m -9.136,0 h 4.568 v 4.568 h -4.568 z m -4.5671,0 h 4.5671 v 4.568 h -4.5671 z m -4.5676,0 h 4.5676 v 4.568 h -4.5676 z m -4.5675,0 h 4.5676 v 4.568 h -4.5676 z m -4.5676,0 h 4.5676 v 4.568 h -4.5676 z m -4.5675,0 h 4.5675 v 4.568 h -4.5675 z m -4.5676,0 h 4.5676 v 4.568 h -4.5676 z m -13.7027,0 h 4.5676 v 4.568 h -4.5676 z m -4.5675,0 h 4.5675 v 4.568 h -4.5675 z m -4.5676,0 h 4.5676 v 4.568 h -4.5676 z m -9.1351,0 h 4.5675 v 4.568 h -4.5675 z m -13.7027,0 h 4.5676 v 4.568 h -4.5676 z m -4.5676,0 h 4.5676 v 4.568 h -4.5676 z m -4.5675,0 h 4.5675 v 4.568 h -4.5675 z m -4.5676,0 h 4.5676 v 4.568 h -4.5676 z m -4.56756,0 h 4.56756 v 4.568 H 9.13513 Z m -4.56756,0 h 4.56756 v 4.568 H 4.56768 Z m -4.567561744,0 H 4.56768 v 4.568 H 1.18256e-4 Z M 150.73,132.459 h 4.567 v 4.568 h -4.567 z m -4.568,0 h 4.568 v 4.568 h -4.568 z m -18.27,0 h 4.567 v 4.568 h -4.567 z m -4.568,0 h 4.568 v 4.568 h -4.568 z m -18.27,0 h 4.568 v 4.568 h -4.568 z m -9.1351,0 h 4.5681 v 4.568 h -4.5681 z m -18.2702,0 h 4.5676 v 4.568 h -4.5676 z m -4.5676,0 h 4.5676 v 4.568 h -4.5676 z m -4.5675,0 h 4.5675 v 4.568 h -4.5675 z m -31.973,0 h 4.5676 v 4.568 h -4.5676 z m 123.3244,-4.567 h 4.567 v 4.567 h -4.567 z m -4.568,0 h 4.568 v 4.567 h -4.568 z m -9.135,0 h 4.568 v 4.567 h -4.568 z m -4.567,0 h 4.567 v 4.567 h -4.567 z m -4.568,0 h 4.568 v 4.567 h -4.568 z m -4.568,0 h 4.568 v 4.567 h -4.568 z m -4.567,0 h 4.568 v 4.567 h -4.568 z m -13.703,0 h 4.568 v 4.567 h -4.568 z m -4.567,0 h 4.567 v 4.567 h -4.567 z m -9.135,0 h 4.567 v 4.567 h -4.567 z m -9.1356,0 h 4.5676 v 4.567 h -4.5676 z m -4.5675,0 h 4.5675 v 4.567 h -4.5675 z m -4.5676,0 h 4.5676 v 4.567 h -4.5676 z m -9.1351,0 h 4.5675 v 4.567 h -4.5675 z m -4.5676,0 h 4.5676 v 4.567 h -4.5676 z m -13.7027,0 h 4.5676 v 4.567 h -4.5676 z m -18.2702,0 h 4.5675 v 4.567 h -4.5675 z m -4.5676,0 h 4.5676 v 4.567 h -4.5676 z m -4.5675,0 h 4.5675 v 4.567 h -4.5675 z m -9.1352,0 h 4.5676 v 4.567 h -4.5676 z m -4.5675,0 h 4.5675 v 4.567 h -4.5675 z m -4.5676,0 h 4.5676 v 4.567 H 9.13513 Z m -9.135128339,0 H 4.56774 v 4.567 H 1.77383e-4 Z M 150.73,123.324 h 4.567 v 4.568 h -4.567 z m -18.27,0 h 4.567 v 4.568 h -4.567 z m -27.406,0 h 4.568 v 4.568 h -4.568 z m -9.135,0 h 4.568 v 4.568 h -4.568 z m -13.7027,0 h 4.5676 v 4.568 h -4.5676 z m -13.7027,0 h 4.5676 v 4.568 h -4.5676 z m -18.2702,0 h 4.5675 v 4.568 h -4.5675 z m -9.1352,0 h 4.5676 v 4.568 h -4.5676 z m -4.5675,0 h 4.5675 v 4.568 h -4.5675 z m -13.7027,0 h 4.5675 v 4.568 H 22.838 Z m -4.5676,0 h 4.5676 v 4.568 h -4.5676 z m -13.70268,0 h 4.56756 v 4.568 H 4.56772 Z M 164.432,118.757 H 169 v 4.567 h -4.568 z m -9.135,0 h 4.568 v 4.567 h -4.568 z m -9.135,0 h 4.568 v 4.567 h -4.568 z m -4.567,0 h 4.567 v 4.567 h -4.567 z m -13.703,0 h 4.568 v 4.567 h -4.568 z m -9.135,0 h 4.567 v 4.567 h -4.567 z m -18.27,0 h 4.567 v 4.567 h -4.567 z m -9.1356,0 h 4.5676 v 4.567 h -4.5676 z m -13.7027,0 h 4.5676 v 4.567 h -4.5676 z m -4.5675,0 h 4.5675 v 4.567 h -4.5675 z m -9.1351,0 h 4.5675 v 4.567 h -4.5675 z m -4.5676,0 h 4.5675 v 4.567 h -4.5675 z m -4.5676,0 h 4.5676 v 4.567 h -4.5676 z m -9.1351,0 h 4.5676 v 4.567 h -4.5676 z m -4.5676,0 h 4.5676 v 4.567 h -4.5676 z m -4.5675,0 h 4.5675 v 4.567 h -4.5675 z m -4.5676,0 h 4.5676 v 4.567 h -4.5676 z m -4.5675,0 h 4.5675 v 4.567 h -4.5675 z m -4.5676,0 h 4.5676 v 4.567 H 22.838 Z m -4.5676,0 h 4.5676 v 4.567 h -4.5676 z m -4.5675,0 h 4.5675 v 4.567 h -4.5675 z m -13.702716895,0 H 4.56775 v 4.567 H 1.83105e-4 Z M 159.865,114.189 h 4.567 v 4.568 h -4.567 z m -27.405,0 h 4.567 v 4.568 h -4.567 z m -9.136,0 h 4.568 v 4.568 h -4.568 z m -4.567,0 h 4.567 v 4.568 h -4.567 z m -4.568,0 h 4.568 v 4.568 h -4.568 z m -4.567,0 h 4.567 v 4.568 h -4.567 z m -13.703,0 h 4.568 v 4.568 h -4.568 z m -9.1351,0 h 4.5676 v 4.568 h -4.5676 z m -9.1351,0 h 4.5675 v 4.568 h -4.5675 z m -4.5676,0 h 4.5676 v 4.568 h -4.5676 z m -9.1351,0 h 4.5676 v 4.568 h -4.5676 z m -13.7027,0 h 4.5676 v 4.568 h -4.5676 z m -4.5676,0 h 4.5676 v 4.568 h -4.5676 z m -22.8378,0 h 4.5676 v 4.568 H 22.838 Z m -9.1351,0 h 4.5676 v 4.568 h -4.5676 z m -4.56756,0 h 4.56756 v 4.568 H 9.13525 Z M 159.865,109.622 h 4.567 v 4.567 h -4.567 z m -4.568,0 h 4.568 v 4.567 h -4.568 z m -27.405,0 h 4.568 v 4.567 h -4.568 z m -13.703,0 h 4.568 v 4.567 h -4.568 z m -4.567,0 h 4.567 v 4.567 h -4.567 z m -9.135,0 h 4.567 v 4.567 h -4.567 z m -4.5679,0 h 4.5679 v 4.567 h -4.5679 z m -4.5676,0 h 4.5676 v 4.567 h -4.5676 z m -9.1351,0 h 4.5675 v 4.567 h -4.5675 z m -4.5676,0 h 4.5676 v 4.567 h -4.5676 z m -18.2703,0 h 4.5676 v 4.567 h -4.5676 z m -4.5675,0 h 4.5675 v 4.567 H 54.811 Z m -13.7027,0 h 4.5676 v 4.567 h -4.5676 z m -13.7027,0 h 4.5676 v 4.567 h -4.5676 z m -18.27024,0 h 4.56754 v 4.567 H 9.13513 Z m -4.56757,0 h 4.56757 v 4.567 H 4.56779 Z M 159.865,105.054 h 4.568 v 4.568 h -4.568 z m -18.27,0 h 4.567 v 4.568 h -4.567 z m -9.135,0 h 4.567 v 4.568 h -4.567 z m -9.136,0 h 4.568 v 4.568 h -4.568 z m -9.135,0 h 4.568 v 4.568 h -4.568 z m -9.135,0 h 4.568 v 4.568 h -4.568 z m -4.567,0 h 4.567 v 4.568 h -4.567 z m -13.7031,0 h 4.5676 v 4.568 h -4.5676 z m -9.1351,0 h 4.5676 v 4.568 h -4.5676 z m -13.7027,0 h 4.5676 v 4.568 h -4.5676 z m -18.2702,0 h 4.5675 v 4.568 h -4.5675 z m -4.5676,0 h 4.5676 v 4.568 h -4.5676 z m -31.97294,0 h 4.56754 v 4.568 H 9.13513 Z m -9.135127303,0 H 4.56779 v 4.568 H 2.32697e-4 Z M 155.297,100.487 h 4.568 v 4.567 h -4.568 z m -18.27,0 h 4.568 v 4.567 h -4.568 z m -4.567,0 h 4.567 v 4.567 h -4.567 z m -4.568,0 h 4.568 v 4.567 h -4.568 z m -9.135,0 h 4.567 v 4.567 h -4.567 z m -9.135,0 h 4.567 v 4.567 h -4.567 z m -4.568,0 h 4.568 v 4.567 h -4.568 z m -4.567,0 h 4.567 v 4.567 h -4.567 z m -4.5679,0 h 4.5679 v 4.567 h -4.5679 z m -4.5676,0 h 4.5676 v 4.567 h -4.5676 z m -9.1351,0 h 4.5676 v 4.567 h -4.5676 z m -4.5675,0 h 4.5675 v 4.567 h -4.5675 z m -18.2703,0 h 4.5676 v 4.567 h -4.5676 z m -4.5676,0 h 4.5676 v 4.567 H 54.811 Z m -9.1351,0 h 4.5676 v 4.567 h -4.5676 z m -4.5675,0 h 4.5675 v 4.567 h -4.5675 z m -4.5676,0 h 4.5675 v 4.567 h -4.5675 z m -4.5676,0 h 4.5676 v 4.567 h -4.5676 z m -4.5675,0 h 4.5675 v 4.567 h -4.5675 z m -4.5676,0 h 4.5676 v 4.567 h -4.5676 z m -4.5676,0 h 4.5676 v 4.567 h -4.5676 z m -13.70265,0 h 4.56756 v 4.567 H 4.56785 Z M 159.865,95.919 h 4.568 v 4.568 h -4.568 z m -9.135,0 h 4.567 v 4.568 h -4.567 z m -9.135,0 h 4.567 v 4.568 h -4.567 z m -9.135,0 h 4.567 v 4.568 h -4.567 z m -4.568,0 h 4.568 v 4.568 h -4.568 z m -4.567,0 h 4.567 v 4.568 h -4.567 z m -9.136,0 h 4.568 v 4.568 h -4.568 z m -9.135,0 h 4.568 v 4.568 h -4.568 z m -9.1349,0 h 4.5679 v 4.568 h -4.5679 z m -9.1351,0 h 4.5676 v 4.568 H 86.784 Z m -4.5676,0 h 4.5676 v 4.568 h -4.5676 z m -4.5675,0 h 4.5675 v 4.568 h -4.5675 z m -9.1351,0 h 4.5675 v 4.568 h -4.5675 z m -4.5676,0 h 4.5676 v 4.568 h -4.5676 z m -4.5676,0 h 4.5676 v 4.568 h -4.5676 z m -9.1351,0 h 4.5676 v 4.568 h -4.5676 z m -18.2702,0 h 4.5675 v 4.568 h -4.5675 z m -13.7027,0 h 4.5675 v 4.568 h -4.5675 z m -4.5676,0 h 4.5676 v 4.568 H 13.703 Z m -13.70268338,0 H 4.56788 v 4.568 H 3.1662e-4 Z M 164.432,91.3513 H 169 v 4.5676 h -4.568 z m -9.135,0 h 4.568 v 4.5676 h -4.568 z m -9.135,0 h 4.568 v 4.5676 h -4.568 z m -27.405,0 h 4.567 v 4.5676 h -4.567 z m -9.135,0 h 4.567 v 4.5676 h -4.567 z m -4.568,0 h 4.568 v 4.5676 h -4.568 z m -9.1352,0 h 4.5672 v 4.5676 h -4.5672 z m -4.5675,0 h 4.5675 v 4.5676 h -4.5675 z m -4.5676,0 h 4.5675 v 4.5676 h -4.5675 z m -4.5676,0 h 4.5676 v 4.5676 h -4.5676 z m -9.1351,0 h 4.5676 v 4.5676 H 73.081 Z m -27.4054,0 h 4.5676 v 4.5676 h -4.5676 z m -4.5675,0 h 4.5675 v 4.5676 h -4.5675 z m -13.7027,0 h 4.5676 v 4.5676 h -4.5676 z m -4.5676,0 h 4.5676 v 4.5676 h -4.5676 z m -4.5675,0 h 4.5675 v 4.5676 h -4.5675 z m -9.13516,0 h 4.56756 v 4.5676 H 9.13513 Z m -4.56756,0 h 4.56756 v 4.5676 H 4.56758 Z M 159.865,86.7838 h 4.567 v 4.5675 h -4.567 z m -9.135,0 h 4.567 v 4.5675 h -4.567 z m -4.568,0 h 4.568 v 4.5675 h -4.568 z m -4.568,0 h 4.568 v 4.5675 h -4.568 z m -9.135,0 h 4.568 v 4.5675 h -4.568 z m -9.135,0 h 4.568 v 4.5675 h -4.568 z m -9.135,0 h 4.568 v 4.5675 h -4.568 z m -4.567,0 h 4.567 v 4.5675 h -4.567 z m -4.568,0 h 4.568 v 4.5675 h -4.568 z m -27.4054,0 h 4.5676 v 4.5675 h -4.5676 z m -22.8378,0 h 4.5675 v 4.5675 h -4.5675 z m -4.5676,0 h 4.5676 v 4.5675 h -4.5676 z m -13.7027,0 h 4.5676 v 4.5675 h -4.5676 z m -13.7026,0 h 4.5675 v 4.5675 h -4.5675 z m -4.5676,0 h 4.5676 v 4.5675 h -4.5676 z m -4.5676,0 h 4.5676 v 4.5675 h -4.5676 z m -4.56755,0 h 4.56755 v 4.5675 H 9.13513 Z M 164.432,82.2162 H 169 v 4.5676 h -4.568 z m -9.135,0 h 4.568 v 4.5676 h -4.568 z m -13.703,0 h 4.568 v 4.5676 h -4.568 z m -9.135,0 h 4.568 v 4.5676 h -4.568 z m -4.567,0 h 4.567 v 4.5676 h -4.567 z m -9.135,0 h 4.567 v 4.5676 h -4.567 z m -9.135,0 h 4.567 v 4.5676 h -4.567 z m -4.568,0 h 4.568 v 4.5676 h -4.568 z m -18.2702,0 h 4.5675 v 4.5676 h -4.5675 z m -4.5676,0 h 4.5676 v 4.5676 h -4.5676 z m -9.1351,0 h 4.5675 v 4.5676 h -4.5675 z m -9.1352,0 h 4.5676 v 4.5676 h -4.5676 z m -4.5675,0 h 4.5675 v 4.5676 h -4.5675 z m -13.7027,0 h 4.5675 v 4.5676 h -4.5675 z m -4.5676,0 h 4.5676 v 4.5676 h -4.5676 z m -9.1351,0 h 4.5676 v 4.5676 H 31.973 Z m -4.5676,0 h 4.5676 v 4.5676 h -4.5676 z m -4.5675,0 h 4.5675 v 4.5676 h -4.5675 z m -9.1351,0 h 4.5675 v 4.5676 h -4.5675 z m -4.56761,0 h 4.56761 v 4.5676 H 9.13513 Z m -9.1351327795,0 H 4.56762 v 4.5676 H 5.72205e-5 Z M 159.865,77.6486 h 4.567 v 4.5676 h -4.567 z m -9.135,0 h 4.567 v 4.5676 h -4.567 z m -9.135,0 h 4.567 v 4.5676 h -4.567 z m -27.406,0 h 4.568 v 4.5676 h -4.568 z m -4.567,0 h 4.567 v 4.5676 h -4.567 z m -4.568,0 h 4.568 v 4.5676 h -4.568 z m -4.568,0 h 4.568 v 4.5676 h -4.568 z m -9.1347,0 h 4.5676 v 4.5676 h -4.5676 z m -18.2702,0 h 4.5675 v 4.5676 h -4.5675 z m -9.1352,0 h 4.5676 v 4.5676 h -4.5676 z m -4.5675,0 h 4.5675 v 4.5676 h -4.5675 z m -9.1352,0 h 4.5676 v 4.5676 h -4.5676 z m -9.1351,0 h 4.5676 v 4.5676 h -4.5676 z m -4.5675,0 h 4.5675 v 4.5676 h -4.5675 z m -18.2703,0 h 4.5676 v 4.5676 h -4.5676 z m -4.5676,0 h 4.5676 v 4.5676 h -4.5676 z m -9.13509,0 h 4.56756 v 4.5676 H 4.56761 Z M 164.432,73.0811 H 169 v 4.5675 h -4.568 z m -4.567,0 h 4.567 v 4.5675 h -4.567 z m -4.568,0 h 4.568 v 4.5675 h -4.568 z m -13.702,0 h 4.567 v 4.5675 h -4.567 z m -4.568,0 h 4.568 v 4.5675 h -4.568 z m -13.703,0 h 4.568 v 4.5675 h -4.568 z m -13.702,0 h 4.567 v 4.5675 h -4.567 z m -4.568,0 h 4.568 v 4.5675 h -4.568 z m -4.568,0 h 4.568 v 4.5675 h -4.568 z m -9.1347,0 h 4.5676 v 4.5675 h -4.5676 z m -22.8378,0 h 4.5676 v 4.5675 h -4.5676 z m -4.5675,0 h 4.5675 v 4.5675 H 63.946 Z m -9.1352,0 h 4.5676 v 4.5675 h -4.5676 z m -4.5675,0 h 4.5675 v 4.5675 h -4.5675 z m -4.5676,0 h 4.5676 v 4.5675 h -4.5676 z m -4.5675,0 h 4.5675 v 4.5675 h -4.5675 z m -9.1352,0 h 4.5676 v 4.5675 H 31.973 Z m -4.5675,0 h 4.5675 v 4.5675 h -4.5675 z m -9.1352,0 h 4.5676 v 4.5675 h -4.5676 z m -18.2702084473,0 H 4.56765 v 4.5675 H 9.15527e-5 Z M 164.432,68.5135 H 169 v 4.5676 h -4.568 z m -13.702,0 h 4.567 v 4.5676 h -4.567 z m -18.271,0 h 4.568 v 4.5676 h -4.568 z m -13.702,0 h 4.567 v 4.5676 h -4.567 z m -4.568,0 h 4.568 v 4.5676 h -4.568 z m -9.135,0 h 4.568 v 4.5676 h -4.568 z m -4.568,0 h 4.568 v 4.5676 h -4.568 z m -4.5671,0 h 4.5681 v 4.5676 h -4.5681 z m -4.5675,0 h 4.5675 v 4.5676 h -4.5675 z m -4.5676,0 h 4.5676 v 4.5676 h -4.5676 z m -4.5675,0 h 4.5675 v 4.5676 h -4.5675 z m -4.5676,0 h 4.5676 v 4.5676 h -4.5676 z m -13.7027,0 h 4.5676 v 4.5676 H 63.946 Z m -9.1351,0 h 4.5675 v 4.5676 h -4.5675 z m -4.5676,0 h 4.5676 v 4.5676 h -4.5676 z m -27.4054,0 h 4.5676 v 4.5676 H 22.838 Z m -9.1351,0 h 4.5676 v 4.5676 h -4.5676 z m -4.56755,0 h 4.56755 v 4.5676 H 9.13513 Z m -4.56757,0 h 4.56757 v 4.5676 H 4.56768 Z m -4.56755793,0 H 4.56768 v 4.5676 H 1.2207e-4 Z M 164.432,63.9459 H 169 v 4.5676 h -4.568 z m -9.135,0 h 4.568 v 4.5676 h -4.568 z m -9.135,0 h 4.568 v 4.5676 h -4.568 z m -4.567,0 h 4.567 v 4.5676 h -4.567 z m -13.703,0 h 4.567 v 4.5676 h -4.567 z m -9.135,0 h 4.567 v 4.5676 h -4.567 z m -4.568,0 h 4.568 v 4.5676 h -4.568 z m -4.567,0 h 4.567 v 4.5676 h -4.567 z m -4.568,0 h 4.568 v 4.5676 h -4.568 z m -9.1351,0 h 4.5671 v 4.5676 h -4.5671 z m -4.5676,0 h 4.5676 v 4.5676 h -4.5676 z m -9.1351,0 h 4.5676 v 4.5676 h -4.5676 z m -13.7027,0 h 4.5676 v 4.5676 h -4.5676 z m -4.5675,0 h 4.5675 v 4.5676 H 63.946 Z m -9.1351,0 h 4.5675 v 4.5676 h -4.5675 z m -4.5676,0 h 4.5676 v 4.5676 h -4.5676 z m -4.5676,0 h 4.5676 v 4.5676 h -4.5676 z m -13.7026,0 h 4.5675 v 4.5676 h -4.5675 z m -4.5676,0 h 4.5676 v 4.5676 h -4.5676 z m -4.5676,0 h 4.5676 v 4.5676 h -4.5676 z m -13.70266,0 h 4.56756 v 4.5676 H 9.13513 Z m -4.56756,0 h 4.56756 v 4.5676 H 4.56768 Z M 146.162,59.3784 h 4.568 v 4.5675 h -4.568 z m -9.135,0 h 4.568 v 4.5675 h -4.568 z m -9.135,0 h 4.567 v 4.5675 h -4.567 z m -22.838,0 h 4.568 v 4.5675 h -4.568 z m -18.2702,0 h 4.5676 v 4.5675 h -4.5676 z m -9.1351,0 h 4.5675 v 4.5675 h -4.5675 z m -4.5676,0 h 4.5676 v 4.5675 h -4.5676 z m -27.4053,0 h 4.5675 v 4.5675 h -4.5675 z m -9.1352,0 h 4.5676 v 4.5675 h -4.5676 z m -4.5675,0 h 4.5675 v 4.5675 h -4.5675 z m -9.1352,0 h 4.5676 v 4.5675 h -4.5676 z m -4.5675,0 h 4.5675 v 4.5675 h -4.5675 z m -4.5676,0 h 4.5676 v 4.5675 h -4.5676 z m -4.56757,0 h 4.56757 v 4.5675 H 9.13513 Z m -4.56756,0 h 4.56756 v 4.5675 H 4.56767 Z M 164.432,54.8108 H 169 v 4.5676 h -4.568 z m -9.135,0 h 4.568 v 4.5676 h -4.568 z m -9.135,0 h 4.568 v 4.5676 h -4.568 z m -9.135,0 h 4.567 v 4.5676 h -4.567 z m -18.27,0 h 4.567 v 4.5676 h -4.567 z m -13.703,0 h 4.568 v 4.5676 h -4.568 z m -4.568,0 h 4.568 v 4.5676 h -4.568 z m -22.8374,0 h 4.5675 v 4.5676 h -4.5675 z m -4.5676,0 h 4.5676 v 4.5676 H 73.081 Z m -4.5675,0 h 4.5675 v 4.5676 h -4.5675 z m -4.5676,0 h 4.5675 v 4.5676 h -4.5675 z m -4.5676,0 h 4.5676 v 4.5676 h -4.5676 z m -22.8378,0 h 4.5676 v 4.5676 h -4.5676 z m -9.1351,0 h 4.5676 v 4.5676 h -4.5676 z m -4.5676,0 h 4.5676 v 4.5676 h -4.5676 z m -9.1351,0 h 4.5676 v 4.5676 h -4.5676 z m -4.56756,0 h 4.56756 v 4.5676 H 9.13513 Z m -4.56756,0 h 4.56756 v 4.5676 H 4.56758 Z m -4.5675609265,0 H 4.56758 v 4.5676 H 1.90735e-5 Z M 159.865,50.2432 h 4.567 v 4.5676 h -4.567 z m -22.838,0 h 4.567 v 4.5676 h -4.567 z m -4.568,0 h 4.568 v 4.5676 h -4.568 z m -18.27,0 h 4.568 v 4.5676 h -4.568 z m -13.703,0 h 4.568 v 4.5676 h -4.568 z m -18.2698,0 h 4.5675 v 4.5676 h -4.5675 z m -9.1352,0 h 4.5676 v 4.5676 H 73.081 Z m -9.1351,0 h 4.5676 v 4.5676 h -4.5676 z m -4.5676,0 h 4.5676 v 4.5676 h -4.5676 z m -4.5675,0 h 4.5675 v 4.5676 h -4.5675 z m -4.5676,0 h 4.5676 v 4.5676 h -4.5676 z m -4.5675,0 h 4.5675 v 4.5676 h -4.5675 z m -4.5676,0 h 4.5676 v 4.5676 h -4.5676 z m -4.5675,0 h 4.5675 v 4.5676 h -4.5675 z m -18.2703,0 h 4.5676 v 4.5676 h -4.5676 z m -13.70269,0 h 4.56756 v 4.5676 H 4.56761 Z m -4.5675642236,0 H 4.56761 v 4.5676 H 4.57764e-5 Z M 164.432,45.6757 H 169 v 4.5675 h -4.568 z m -9.135,0 h 4.568 v 4.5675 h -4.568 z m -4.567,0 h 4.567 v 4.5675 h -4.567 z m -4.568,0 h 4.568 v 4.5675 h -4.568 z m -4.567,0 h 4.567 v 4.5675 h -4.567 z m -4.568,0 h 4.568 v 4.5675 h -4.568 z m -9.135,0 h 4.567 v 4.5675 h -4.567 z m -9.135,0 h 4.567 v 4.5675 h -4.567 z m -9.135,0 h 4.567 v 4.5675 h -4.567 z m -4.568,0 h 4.568 v 4.5675 h -4.568 z m -4.568,0 h 4.568 v 4.5675 h -4.568 z m -9.1347,0 h 4.5676 v 4.5675 h -4.5676 z m -4.5675,0 h 4.5675 v 4.5675 h -4.5675 z m -9.1351,0 h 4.5675 v 4.5675 h -4.5675 z m -18.2703,0 h 4.5675 v 4.5675 h -4.5675 z m -4.5676,0 h 4.5676 v 4.5675 h -4.5676 z m -9.1351,0 h 4.5676 v 4.5675 h -4.5676 z m -13.7027,0 h 4.5676 v 4.5675 H 31.973 Z m -4.5675,0 h 4.5675 v 4.5675 h -4.5675 z m -4.5676,0 h 4.5676 v 4.5675 h -4.5676 z m -4.5676,0 h 4.5676 v 4.5675 H 18.2703 Z M 159.865,41.1081 h 4.567 v 4.5676 h -4.567 z m -9.135,0 h 4.567 v 4.5676 h -4.567 z m -22.838,0 h 4.567 v 4.5676 h -4.567 z m -13.703,0 h 4.568 v 4.5676 h -4.568 z m -9.135,0 h 4.568 v 4.5676 h -4.568 z m -9.1351,0 h 4.5671 v 4.5676 h -4.5671 z m -4.5676,0 h 4.5676 v 4.5676 h -4.5676 z m -4.5675,0 h 4.5676 v 4.5676 h -4.5676 z m -4.5676,0 h 4.5676 v 4.5676 h -4.5676 z m -4.5675,0 h 4.5675 v 4.5676 h -4.5675 z m -9.1352,0 h 4.5676 v 4.5676 h -4.5676 z m -4.5675,0 h 4.5675 v 4.5676 H 63.946 Z m -4.5676,0 h 4.5676 v 4.5676 h -4.5676 z m -4.5675,0 h 4.5675 v 4.5676 h -4.5675 z m -4.5676,0 h 4.5676 v 4.5676 h -4.5676 z m -4.5675,0 h 4.5675 v 4.5676 h -4.5675 z m -4.5676,0 h 4.5675 v 4.5676 h -4.5675 z m -4.5676,0 h 4.5676 v 4.5676 h -4.5676 z m -4.5675,0 h 4.5675 v 4.5676 h -4.5675 z m -9.1352,0 h 4.5676 v 4.5676 h -4.5676 z m -4.5675,0 h 4.5675 v 4.5676 h -4.5675 z m -9.13516,0 h 4.56756 v 4.5676 H 9.13513 Z m -9.135121744,0 H 4.56768 v 4.5676 H 1.18256e-4 Z M 159.865,36.5405 h 4.567 v 4.5676 h -4.567 z m -13.703,0 h 4.568 v 4.5676 h -4.568 z m -36.54,0 h 4.567 v 4.5676 h -4.567 z m -13.7031,0 h 4.5681 v 4.5676 h -4.5681 z m -9.1351,0 h 4.5676 v 4.5676 h -4.5676 z m -4.5675,0 h 4.5675 v 4.5676 h -4.5675 z m -9.1352,0 h 4.5676 v 4.5676 h -4.5676 z m -4.5675,0 h 4.5675 v 4.5676 h -4.5675 z m -9.1352,0 h 4.5676 v 4.5676 h -4.5676 z m -18.2702,0 h 4.5675 v 4.5676 h -4.5675 z m -13.7027,0 h 4.5676 v 4.5676 h -4.5676 z m -9.1351,0 h 4.5675 v 4.5676 h -4.5675 z m -9.13515,0 h 4.56755 v 4.5676 H 9.13521 Z m -9.13512793,0 H 4.56768 v 4.5676 H 1.2207e-4 Z M 123.324,31.973 h 4.568 v 4.5675 h -4.568 z m -9.135,0 h 4.568 v 4.5675 h -4.568 z m -9.135,0 h 4.568 v 4.5675 h -4.568 z m -4.567,0 h 4.567 v 4.5675 h -4.567 z m -18.2707,0 h 4.5675 v 4.5675 h -4.5675 z m -4.5676,0 h 4.5676 v 4.5675 h -4.5676 z m -13.7027,0 h 4.5676 v 4.5675 H 63.946 Z m -4.5676,0 h 4.5676 v 4.5675 h -4.5676 z m -4.5675,0 h 4.5675 v 4.5675 H 54.8109 Z M 164.432,27.4054 H 169 v 4.5676 h -4.568 z m -4.567,0 h 4.567 v 4.5676 h -4.567 z m -4.568,0 h 4.568 v 4.5676 h -4.568 z m -4.567,0 h 4.567 v 4.5676 h -4.567 z m -4.568,0 h 4.568 v 4.5676 h -4.568 z m -4.567,0 h 4.567 v 4.5676 h -4.567 z m -4.568,0 h 4.568 v 4.5676 h -4.568 z m -9.135,0 h 4.567 v 4.5676 h -4.567 z m -9.135,0 h 4.567 v 4.5676 h -4.567 z m -9.135,0 h 4.567 v 4.5676 h -4.567 z m -9.135,0 h 4.567 v 4.5676 h -4.567 z m -9.1356,0 h 4.5676 v 4.5676 h -4.5676 z m -9.1351,0 h 4.5675 v 4.5676 h -4.5675 z m -9.1352,0 h 4.5676 v 4.5676 h -4.5676 z m -9.1351,0 h 4.5676 V 31.973 H 63.946 Z m -9.1351,0 h 4.5675 v 4.5676 h -4.5675 z m -9.1351,0 h 4.5675 v 4.5676 h -4.5675 z m -9.1352,0 h 4.5676 v 4.5676 h -4.5676 z m -9.1351,0 h 4.5676 v 4.5676 h -4.5676 z m -4.5675,0 h 4.5675 V 31.973 H 22.838 Z m -4.5676,0 h 4.5676 v 4.5676 h -4.5676 z m -4.5676,0 h 4.5676 v 4.5676 h -4.5676 z m -4.56755,0 H 13.7028 V 31.973 H 9.13513 Z m -4.56756,0 H 9.13525 V 31.973 H 4.56769 Z m -4.56756793,0 H 4.56769 V 31.973 H 1.27792e-4 Z M 164.432,22.8378 H 169 v 4.5676 h -4.568 z m -27.405,0 h 4.568 v 4.5676 h -4.568 z m -18.27,0 h 4.567 v 4.5676 h -4.567 z m -13.703,0 h 4.568 v 4.5676 h -4.568 z m -9.135,0 h 4.568 v 4.5676 h -4.568 z m -13.7027,0 h 4.5675 v 4.5676 h -4.5675 z m -9.1352,0 h 4.5676 v 4.5676 h -4.5676 z m -4.5675,0 h 4.5675 v 4.5676 h -4.5675 z m -13.7027,0 h 4.5675 v 4.5676 h -4.5675 z m -9.1351,0 h 4.5675 v 4.5676 h -4.5675 z m -18.2703,0 h 4.5676 v 4.5676 h -4.5676 z m -27.40537793,0 H 4.56769 v 4.5676 H 1.27792e-4 Z M 164.432,18.2703 H 169 v 4.5675 h -4.568 z m -9.135,0 h 4.568 v 4.5675 h -4.568 z m -4.567,0 h 4.567 v 4.5675 h -4.567 z m -4.568,0 h 4.568 v 4.5675 h -4.568 z m -9.135,0 h 4.567 v 4.5675 h -4.567 z m -9.135,0 h 4.567 v 4.5675 h -4.567 z m -9.135,0 h 4.567 v 4.5675 h -4.567 z m -4.568,0 h 4.568 v 4.5675 h -4.568 z m -4.567,0 h 4.567 v 4.5675 h -4.567 z m -9.136,0 h 4.568 v 4.5675 h -4.568 z m -9.1347,0 h 4.5675 v 4.5675 h -4.5675 z m -9.1352,0 h 4.5676 v 4.5675 h -4.5676 z m -13.7026,0 h 4.5675 v 4.5675 h -4.5675 z m -9.1352,0 h 4.5676 v 4.5675 h -4.5676 z m -9.1351,0 h 4.5676 v 4.5675 h -4.5676 z m -4.5676,0 h 4.5676 v 4.5675 h -4.5676 z m -9.1351,0 h 4.5676 v 4.5675 h -4.5676 z m -9.1351,0 h 4.5675 v 4.5675 h -4.5675 z m -9.1351,0 h 4.5675 v 4.5675 h -4.5675 z m -4.5676,0 h 4.5676 v 4.5675 h -4.5676 z m -4.56758,0 h 4.56758 v 4.5675 H 9.13513 Z M 0,18.2703 h 4.56756 v 4.5675 H 0 Z M 164.432,13.7027 H 169 v 4.5676 h -4.568 z m -9.135,0 h 4.568 v 4.5676 h -4.568 z m -4.567,0 h 4.567 v 4.5676 h -4.567 z m -4.568,0 h 4.568 v 4.5676 h -4.568 z m -9.135,0 h 4.567 v 4.5676 h -4.567 z m -13.703,0 h 4.568 v 4.5676 h -4.568 z m -9.135,0 h 4.568 v 4.5676 h -4.568 z m -18.2702,0 h 4.5672 v 4.5676 h -4.5672 z m -4.5675,0 h 4.5675 v 4.5676 h -4.5675 z m -9.1352,0 h 4.5676 v 4.5676 h -4.5676 z m -9.1351,0 h 4.5676 v 4.5676 H 73.081 Z m -4.5675,0 h 4.5675 v 4.5676 h -4.5675 z m -4.5676,0 h 4.5675 v 4.5676 h -4.5675 z m -18.2703,0 h 4.5676 v 4.5676 h -4.5676 z m -4.5675,0 h 4.5675 v 4.5676 h -4.5675 z m -13.7027,0 h 4.5676 v 4.5676 h -4.5676 z m -9.1351,0 h 4.5675 v 4.5676 h -4.5675 z m -4.5676,0 h 4.5676 v 4.5676 h -4.5676 z m -4.56756,0 h 4.56756 v 4.5676 H 9.13513 Z m -9.1351285559,0 H 4.56757 v 4.5676 H 1.14441e-5 Z M 164.432,9.13515 H 169 v 4.56755 h -4.568 z m -9.135,0 h 4.568 v 4.56755 h -4.568 z m -4.567,0 h 4.567 v 4.56755 h -4.567 z m -4.568,0 h 4.568 v 4.56755 h -4.568 z m -9.135,0 h 4.567 v 4.56755 h -4.567 z m -13.703,0 h 4.568 v 4.56755 h -4.568 z m -4.567,0 h 4.567 v 4.56755 h -4.567 z m -13.703,0 h 4.568 v 4.56755 h -4.568 z m -4.568,0 h 4.568 v 4.56755 h -4.568 z m -22.8374,0 h 4.5676 v 4.56755 h -4.5676 z m -4.5676,0 h 4.5676 V 13.7027 H 73.081 Z m -4.5675,0 h 4.5675 v 4.56755 h -4.5675 z m -4.5676,0 h 4.5676 v 4.56755 h -4.5676 z m -4.5675,0 h 4.5675 v 4.56755 h -4.5675 z m -4.5676,0 h 4.5676 v 4.56755 h -4.5676 z m -13.7027,0 h 4.5676 v 4.56755 h -4.5676 z m -13.7027,0 h 4.5676 v 4.56755 h -4.5676 z m -9.1351,0 h 4.5676 v 4.56755 h -4.5676 z m -4.5676,0 h 4.5676 v 4.56755 h -4.5676 z m -4.56754,0 H 13.7027 V 13.7027 H 9.13513 Z m -9.1351256677,0 H 4.5676 V 13.7027 H 3.43323e-5 Z M 164.432,4.56758 H 169 v 4.56757 h -4.568 z m -27.405,0 h 4.567 v 4.56757 h -4.567 z m -13.703,0 h 4.568 v 4.56757 h -4.568 z m -9.135,0 h 4.568 v 4.56757 h -4.568 z m -9.135,0 h 4.568 v 4.56757 h -4.568 z m -9.1352,0 h 4.5672 v 4.56757 h -4.5672 z m -18.2702,0 h 4.5675 v 4.56757 h -4.5675 z m -4.5676,0 h 4.5676 V 9.13515 H 73.081 Z m -4.5675,0 h 4.5675 v 4.56757 h -4.5675 z m -4.5676,0 h 4.5675 v 4.56757 h -4.5675 z m -4.5676,0 h 4.5676 v 4.56757 h -4.5676 z m -22.8378,0 h 4.5676 v 4.56757 h -4.5676 z m -9.1351,0 h 4.5676 v 4.56757 h -4.5676 z m -27.4053847412,0 H 4.56758 V 9.13515 H 1.52588e-5 Z M 164.432,0 H 169 v 4.56758 h -4.568 z m -4.567,0 h 4.567 v 4.56758 h -4.567 z m -4.568,0 h 4.568 v 4.56758 h -4.568 z m -4.567,0 h 4.567 v 4.56758 h -4.567 z m -4.568,0 h 4.568 v 4.56758 h -4.568 z m -4.568,0 h 4.568 v 4.56758 h -4.568 z m -4.567,0 h 4.567 v 4.56758 h -4.567 z m -9.135,0 h 4.567 v 4.56758 h -4.567 z m -4.568,0 h 4.568 v 4.56758 h -4.568 z m -4.567,0 h 4.567 v 4.56758 h -4.567 z m -9.135,0 h 4.567 v 4.56758 h -4.567 z m -4.568,0 h 4.568 v 4.56758 h -4.568 z m -4.568,0 h 4.568 v 4.56758 h -4.568 z m -9.1347,0 h 4.5676 v 4.56758 h -4.5676 z m -9.1351,0 h 4.5676 v 4.56758 h -4.5676 z m -4.5676,0 h 4.5676 v 4.56758 h -4.5676 z m -9.1351,0 h 4.5676 v 4.56758 h -4.5676 z m -4.5676,0 h 4.5676 v 4.56758 h -4.5676 z m -4.5675,0 h 4.5675 v 4.56758 h -4.5675 z m -9.1351,0 h 4.5675 V 4.56758 H 50.2433 Z M 27.4054,0 h 4.5676 v 4.56758 h -4.5676 z m -4.5675,0 h 4.5675 v 4.56758 h -4.5675 z m -4.5676,0 h 4.5676 v 4.56758 h -4.5676 z m -4.5675,0 h 4.5675 V 4.56758 H 13.7028 Z M 9.13519,0 H 13.7028 V 4.56758 H 9.13513 Z M 4.56762,0 H 9.13519 V 4.56758 H 4.56762 Z M 5.72205e-5,0 H 4.56763 V 4.56758 H 6.29425e-5 Z"
       fill="#000000"
       transform="translate(20.75,20.75)"
       id="path2" />
    <path
       d="M 0.559,8.299 V 1.978 H 1.6168 L 2.58,6.8112 3.5432,1.978 H 4.601 V 8.299 H 3.913 V 7.0348 Q 3.913,6.4844 3.9216,5.9297 3.9302,5.375 3.9388,4.8246 L 3.956,4.1882 Q 3.9646,3.8356 3.9689,3.4787 3.9732,3.1218 3.9732,2.7606 L 2.8724,8.299 H 2.2876 L 1.1868,2.7606 q 0,0.3612 0.0043,0.7181 0.0043,0.3569 0.0129,0.7095 L 1.2212,4.8246 Q 1.2298,5.375 1.2384,5.9297 1.247,6.4844 1.247,7.0348 V 8.299 Z M 7.74,8.3678 q -0.2494,0 -0.4988,-0.043 Q 6.9918,8.2818 6.7682,8.1786 6.5446,8.0754 6.3597,7.8991 6.1748,7.7228 6.0587,7.5035 5.9426,7.2842 5.8953,7.0348 5.848,6.7854 5.848,6.536 V 3.741 Q 5.848,3.4916 5.8953,3.2422 5.9426,2.9928 6.0587,2.7735 6.1748,2.5542 6.3597,2.3779 6.5446,2.2016 6.7682,2.0984 6.9918,1.9952 7.2412,1.9522 7.4906,1.9092 7.74,1.9092 q 0.2494,0 0.4988,0.043 0.2494,0.043 0.473,0.1462 0.2236,0.1032 0.4085,0.2795 0.1849,0.1763 0.301,0.3956 Q 9.5374,2.9928 9.5847,3.2422 9.632,3.4916 9.632,3.741 v 2.795 q 0,0.2494 -0.0473,0.4988 Q 9.5374,7.2842 9.4213,7.5035 9.3052,7.7228 9.1203,7.8991 8.9354,8.0754 8.7118,8.1786 8.4882,8.2818 8.2388,8.3248 7.9894,8.3678 7.74,8.3678 Z m 0,-0.6364 q 0.1634,0 0.3182,-0.0258 Q 8.213,7.6798 8.3549,7.6067 8.4968,7.5336 8.6129,7.4175 8.729,7.3014 8.7978,7.1595 8.8666,7.0176 8.8924,6.8585 8.9182,6.6994 8.9182,6.536 V 3.741 Q 8.9182,3.5776 8.8924,3.4185 8.8666,3.2594 8.7978,3.1175 8.729,2.9756 8.6129,2.8595 8.4968,2.7434 8.3549,2.6703 8.213,2.5972 8.0582,2.5714 7.9034,2.5456 7.74,2.5456 7.5766,2.5456 7.4218,2.5714 7.267,2.5972 7.1251,2.6703 6.9832,2.7434 6.8671,2.8595 6.751,2.9756 6.6822,3.1175 6.6134,3.2594 6.5876,3.4185 6.5618,3.5776 6.5618,3.741 v 2.795 q 0,0.1634 0.0258,0.3225 0.0258,0.1591 0.0946,0.301 0.0688,0.1419 0.1849,0.258 0.1161,0.1161 0.258,0.1892 Q 7.267,7.6798 7.4218,7.7056 7.5766,7.7314 7.74,7.7314 Z M 10.879,8.299 V 1.978 h 1.0578 L 12.9,6.8112 13.8632,1.978 H 14.921 V 8.299 H 14.233 V 7.0348 q 0,-0.5504 0.0086,-1.1051 0.0086,-0.5547 0.0172,-1.1051 L 14.276,4.1882 Q 14.2846,3.8356 14.2889,3.4787 14.2932,3.1218 14.2932,2.7606 L 13.1924,8.299 H 12.6076 L 11.5068,2.7606 q 0,0.3612 0.0043,0.7181 0.0043,0.3569 0.0129,0.7095 l 0.0172,0.6364 q 0.0086,0.5504 0.0172,1.1051 0.0086,0.5547 0.0086,1.1051 V 8.299 Z m 7.181,0.0688 q -0.2494,0 -0.4988,-0.043 Q 17.3118,8.2818 17.0882,8.1786 16.8646,8.0754 16.6797,7.8991 16.4948,7.7228 16.3787,7.5035 16.2626,7.2842 16.2153,7.0348 16.168,6.7854 16.168,6.536 V 3.741 q 0,-0.2494 0.0473,-0.4988 0.0473,-0.2494 0.1634,-0.4687 0.1161,-0.2193 0.301,-0.3956 0.1849,-0.1763 0.4085,-0.2795 0.2236,-0.1032 0.473,-0.1462 0.2494,-0.043 0.4988,-0.043 0.2494,0 0.4988,0.043 0.2494,0.043 0.473,0.1462 0.2236,0.1032 0.4085,0.2795 0.1849,0.1763 0.301,0.3956 0.1161,0.2193 0.1634,0.4687 0.0473,0.2494 0.0473,0.4988 v 2.795 q 0,0.2494 -0.0473,0.4988 -0.0473,0.2494 -0.1634,0.4687 -0.1161,0.2193 -0.301,0.3956 -0.1849,0.1763 -0.4085,0.2795 -0.2236,0.1032 -0.473,0.1462 -0.2494,0.043 -0.4988,0.043 z m 0,-0.6364 q 0.1634,0 0.3182,-0.0258 0.1548,-0.0258 0.2967,-0.0989 0.1419,-0.0731 0.258,-0.1892 0.1161,-0.1161 0.1849,-0.258 0.0688,-0.1419 0.0946,-0.301 0.0258,-0.1591 0.0258,-0.3225 V 3.741 q 0,-0.1634 -0.0258,-0.3225 Q 19.1866,3.2594 19.1178,3.1175 19.049,2.9756 18.9329,2.8595 18.8168,2.7434 18.6749,2.6703 18.533,2.5972 18.3782,2.5714 18.2234,2.5456 18.06,2.5456 q -0.1634,0 -0.3182,0.0258 -0.1548,0.0258 -0.2967,0.0989 -0.1419,0.0731 -0.258,0.1892 -0.1161,0.1161 -0.1849,0.258 -0.0688,0.1419 -0.0946,0.301 -0.0258,0.1591 -0.0258,0.3225 v 2.795 q 0,0.1634 0.0258,0.3225 0.0258,0.1591 0.0946,0.301 0.0688,0.1419 0.1849,0.258 0.1161,0.1161 0.258,0.1892 0.1419,0.0731 0.2967,0.0989 0.1548,0.0258 0.3182,0.0258 z m 6.9832,1.1954 H 21.3968 V 8.299 h 3.6464 z M 28.0274,8.299 V 2.6058 H 26.5052 V 1.978 h 3.7496 V 2.6058 H 28.7326 V 8.299 Z m 3.6894,0 V 1.978 h 1.9866 q 0.2408,0 0.4816,0.0473 0.2408,0.0473 0.4472,0.1677 0.2064,0.1204 0.3698,0.3053 0.1634,0.1849 0.258,0.4042 0.0946,0.2193 0.1333,0.4601 0.0387,0.2408 0.0387,0.4816 0,0.301 -0.0645,0.6063 -0.0645,0.3053 -0.2322,0.5633 -0.1677,0.258 -0.4343,0.43 -0.2666,0.172 -0.5676,0.2322 l 1.4362,2.623 H 34.7784 L 33.3594,5.7018 H 32.4306 V 8.299 Z m 1.9866,-3.225 q 0.1548,0 0.301,-0.0387 0.1462,-0.0387 0.2709,-0.1247 0.1247,-0.086 0.215,-0.2107 0.0903,-0.1247 0.1419,-0.2666 0.0516,-0.1419 0.0688,-0.2924 0.0172,-0.1505 0.0172,-0.2967 0,-0.1548 -0.0172,-0.3053 Q 34.6838,3.3884 34.6322,3.2465 34.5806,3.1046 34.4903,2.9799 34.4,2.8552 34.2753,2.7692 34.1506,2.6832 34.0044,2.6445 33.8582,2.6058 33.7034,2.6058 H 32.4306 V 5.074 Z m 2.9326,3.225 1.6512,-6.321 h 0.8256 L 40.764,8.299 H 40.0244 L 39.6288,6.6908 H 37.7712 L 37.3756,8.299 Z M 39.474,6.063 38.9838,4.085 Q 38.915,3.7926 38.8419,3.4959 38.7688,3.1992 38.7,2.8982 38.6312,3.1992 38.5581,3.4959 38.485,3.7926 38.4162,4.085 L 37.926,6.063 Z m 2.5628,2.236 V 1.978 h 0.8772 l 2.1414,5.3062 Q 45.0382,6.5962 45.0038,5.8996 44.9694,5.203 44.9694,4.5064 V 1.978 h 0.7138 V 8.299 H 44.806 L 42.6646,2.9928 q 0.0172,0.688 0.0516,1.3846 0.0344,0.6966 0.0344,1.3932 V 8.299 Z m 13.588,0.4472 -0.4128,-0.602 q -0.2322,0.129 -0.4988,0.1763 -0.2666,0.0473 -0.5332,0.0473 -0.2494,0 -0.4988,-0.043 Q 53.4318,8.2818 53.2082,8.1786 52.9846,8.0754 52.7997,7.8991 52.6148,7.7228 52.4987,7.5035 52.3826,7.2842 52.3353,7.0348 52.288,6.7854 52.288,6.536 V 3.741 q 0,-0.2494 0.0473,-0.4988 0.0473,-0.2494 0.1634,-0.4687 0.1161,-0.2193 0.301,-0.3956 0.1849,-0.1763 0.4085,-0.2795 0.2236,-0.1032 0.473,-0.1462 0.2494,-0.043 0.4988,-0.043 0.2494,0 0.4988,0.043 0.2494,0.043 0.473,0.1462 0.2236,0.1032 0.4085,0.2795 0.1849,0.1763 0.301,0.3956 0.1161,0.2193 0.1634,0.4687 0.0473,0.2494 0.0473,0.4988 v 2.795 q 0,0.1634 -0.0172,0.3268 -0.0172,0.1634 -0.0645,0.3182 -0.0473,0.1548 -0.1204,0.301 -0.0731,0.1462 -0.1763,0.2752 l 0.688,0.989 z M 54.18,7.7314 q 0.172,0 0.3354,-0.0301 0.1634,-0.0301 0.3096,-0.1075 L 53.7328,6.0114 h 0.7568 L 55.255,7.1208 Q 55.3152,6.9832 55.3367,6.837 55.3582,6.6908 55.3582,6.536 V 3.741 q 0,-0.1634 -0.0258,-0.3225 Q 55.3066,3.2594 55.2378,3.1175 55.169,2.9756 55.0529,2.8595 54.9368,2.7434 54.7949,2.6703 54.653,2.5972 54.4982,2.5714 54.3434,2.5456 54.18,2.5456 q -0.1634,0 -0.3182,0.0258 -0.1548,0.0258 -0.2967,0.0989 -0.1419,0.0731 -0.258,0.1892 -0.1161,0.1161 -0.1849,0.258 -0.0688,0.1419 -0.0946,0.301 -0.0258,0.1591 -0.0258,0.3225 v 2.795 q 0,0.1634 0.0258,0.3225 0.0258,0.1591 0.0946,0.301 0.0688,0.1419 0.1849,0.258 0.1161,0.1161 0.258,0.1892 0.1419,0.0731 0.2967,0.0989 0.1548,0.0258 0.3182,0.0258 z m 5.16,0.6364 q -0.2408,0 -0.4859,-0.043 Q 58.609,8.2818 58.3897,8.17 58.1704,8.0582 57.9941,7.8819 57.8178,7.7056 57.7103,7.4863 57.6028,7.267 57.5598,7.0262 57.5168,6.7854 57.5168,6.536 V 1.978 h 0.7138 v 4.558 q 0,0.1548 0.0215,0.3096 0.0215,0.1548 0.086,0.2967 0.0645,0.1419 0.1677,0.2623 0.1032,0.1204 0.2365,0.1935 0.1333,0.0731 0.2881,0.1032 0.1548,0.0301 0.3096,0.0301 0.1548,0 0.3096,-0.0301 Q 59.8044,7.6712 59.9377,7.5981 60.071,7.525 60.1742,7.4046 60.2774,7.2842 60.3419,7.1423 60.4064,7.0004 60.4279,6.8456 60.4494,6.6908 60.4494,6.536 V 1.978 h 0.7138 v 4.558 q 0,0.2494 -0.043,0.4902 Q 61.0772,7.267 60.9697,7.4863 60.8622,7.7056 60.6859,7.8819 60.5096,8.0582 60.2903,8.17 60.071,8.2818 59.8259,8.3248 59.5808,8.3678 59.34,8.3678 Z M 62.436,8.299 64.0872,1.978 h 0.8256 L 66.564,8.299 H 65.8244 L 65.4288,6.6908 H 63.5712 L 63.1756,8.299 Z M 65.274,6.063 64.7838,4.085 Q 64.715,3.7926 64.6419,3.4959 64.5688,3.1992 64.5,2.8982 64.4312,3.1992 64.3581,3.4959 64.285,3.7926 64.2162,4.085 L 63.726,6.063 Z m 2.5628,2.236 V 1.978 h 0.8772 l 2.1414,5.3062 Q 70.8382,6.5962 70.8038,5.8996 70.7694,5.203 70.7694,4.5064 V 1.978 h 0.7138 V 8.299 H 70.606 L 68.4646,2.9928 q 0.0172,0.688 0.0516,1.3846 0.0344,0.6966 0.0344,1.3932 V 8.299 Z m 6.9488,0.0688 q -0.2494,0 -0.4945,-0.043 Q 74.046,8.2818 73.8224,8.1743 73.5988,8.0668 73.4225,7.8905 73.2462,7.7142 73.1301,7.4949 73.014,7.2756 72.971,7.0305 72.928,6.7854 72.928,6.536 V 3.741 q 0,-0.2494 0.043,-0.4945 0.043,-0.2451 0.1591,-0.4644 0.1161,-0.2193 0.2967,-0.3956 0.1806,-0.1763 0.4042,-0.2838 0.2236,-0.1075 0.4687,-0.1505 0.2451,-0.043 0.4945,-0.043 0.2322,0 0.4601,0.0301 0.2279,0.0301 0.4429,0.1161 0.215,0.086 0.3999,0.2279 0.1849,0.1419 0.3096,0.3354 0.1247,0.1935 0.1892,0.4171 0.0645,0.2236 0.0645,0.4558 V 3.526 H 75.9466 V 3.5002 q 0,-0.2064 -0.0903,-0.4042 Q 75.766,2.8982 75.5983,2.7692 75.4306,2.6402 75.2199,2.5929 75.0092,2.5456 74.7942,2.5456 q -0.1548,0 -0.3139,0.0258 Q 74.3212,2.5972 74.1836,2.6746 74.046,2.752 73.9342,2.8681 73.8224,2.9842 73.7579,3.1261 73.6934,3.268 73.6676,3.4228 73.6418,3.5776 73.6418,3.741 v 2.795 q 0,0.1634 0.0258,0.3182 0.0258,0.1548 0.0903,0.2967 0.0645,0.1419 0.172,0.258 0.1075,0.1161 0.2451,0.1935 0.1376,0.0774 0.2967,0.1032 0.1591,0.0258 0.3139,0.0258 0.1548,0 0.3139,-0.0258 0.1591,-0.0258 0.2967,-0.1032 0.1376,-0.0774 0.2451,-0.1935 0.1075,-0.1161 0.172,-0.258 Q 75.8778,7.009 75.9036,6.8542 75.9294,6.6994 75.9294,6.536 V 5.4868 H 74.82 V 4.8504 h 1.8232 V 6.536 q 0,0.2494 -0.043,0.4945 -0.043,0.2451 -0.1591,0.4644 -0.1161,0.2193 -0.2924,0.3956 -0.1763,0.1763 -0.3999,0.2838 -0.2236,0.1075 -0.4687,0.1505 -0.2451,0.043 -0.4945,0.043 z M 83.3168,8.299 V 1.978 h 0.8772 l 2.1414,5.3062 Q 86.3182,6.5962 86.2838,5.8996 86.2494,5.203 86.2494,4.5064 V 1.978 h 0.7138 V 8.299 H 86.086 L 83.9446,2.9928 q 0.0172,0.688 0.0516,1.3846 0.0344,0.6966 0.0344,1.3932 V 8.299 Z m 5.16,0 V 1.978 h 0.7138 v 2.7434 h 2.2188 V 1.978 h 0.7138 V 8.299 H 91.4094 V 5.3492 H 89.1906 V 8.299 Z m 4.9192,0 1.6512,-6.321 h 0.8256 L 97.524,8.299 H 96.7844 L 96.3888,6.6908 H 94.5312 L 94.1356,8.299 Z M 96.234,6.063 95.7438,4.085 Q 95.675,3.7926 95.6019,3.4959 95.5288,3.1992 95.46,2.8982 95.3912,3.1992 95.3181,3.4959 95.245,3.7926 95.1762,4.085 L 94.686,6.063 Z m 4.033,2.236 V 2.6058 H 98.7452 V 1.978 h 3.7498 v 0.6278 h -1.522 V 8.299 Z"
       fill="#000000"
       transform="translate(86.75,6.75)"
       id="path3" />
    <path
       d="M 2.6312,8.5624 Q 2.3936,8.5624 2.156,8.5316 1.9184,8.5008 1.694,8.4128 1.4696,8.3248 1.2804,8.1796 1.0912,8.0344 0.9548,7.8364 0.8184,7.6384 0.7524,7.4052 0.6864,7.172 0.6864,6.9344 V 6.908 h 0.7304 v 0.0176 q 0,0.22 0.0968,0.4268 0.0968,0.2068 0.2772,0.3344 0.1804,0.1276 0.4004,0.176 0.22,0.0484 0.44,0.0484 0.1672,0 0.33,-0.0308 Q 3.124,7.8496 3.2736,7.7704 3.4232,7.6912 3.5376,7.568 3.652,7.4448 3.7224,7.2952 3.7928,7.1456 3.8192,6.9784 3.8456,6.8112 3.8456,6.644 V 5.0072 Q 3.7576,5.2272 3.6124,5.4164 3.4672,5.6056 3.2648,5.7376 3.0624,5.8696 2.8292,5.9224 2.596,5.9752 2.3496,5.9752 2.112,5.9752 1.8744,5.9224 1.6368,5.8696 1.4388,5.7376 1.2408,5.6056 1.0912,5.412 0.9416,5.2184 0.8536,4.994 0.7656,4.7696 0.7348,4.532 0.704,4.2944 0.704,4.0568 V 3.872 Q 0.704,3.6168 0.748,3.3572 0.792,3.0976 0.9108,2.8688 1.0296,2.64 1.2188,2.4552 1.408,2.2704 1.6368,2.156 1.8656,2.0416 2.1252,1.9976 2.3848,1.9536 2.64,1.9536 q 0.2552,0 0.5148,0.044 Q 3.4144,2.0416 3.6432,2.156 3.872,2.2704 4.0612,2.4552 4.2504,2.64 4.3692,2.8688 4.488,3.0976 4.532,3.3572 4.576,3.6168 4.576,3.872 v 2.772 q 0,0.2552 -0.044,0.5148 Q 4.488,7.4184 4.3692,7.6472 4.2504,7.876 4.0612,8.0608 3.872,8.2456 3.6388,8.36 3.4056,8.4744 3.146,8.5184 2.8864,8.5624 2.6312,8.5624 Z M 2.64,5.324 q 0.1672,0 0.33,-0.0308 Q 3.1328,5.2624 3.2824,5.1832 3.432,5.104 3.542,4.9808 3.652,4.8576 3.7224,4.7036 3.7928,4.5496 3.8192,4.3868 3.8456,4.224 3.8456,4.0568 V 3.872 q 0,-0.1672 -0.0264,-0.33 Q 3.7928,3.3792 3.7224,3.2252 3.652,3.0712 3.542,2.948 3.432,2.8248 3.2824,2.7456 3.1328,2.6664 2.97,2.6356 2.8072,2.6048 2.64,2.6048 2.4728,2.6048 2.31,2.6356 2.1472,2.6664 1.9976,2.7456 1.848,2.8248 1.738,2.948 1.628,3.0712 1.5576,3.2252 1.4872,3.3792 1.4608,3.542 1.4344,3.7048 1.4344,3.872 v 0.1848 q 0,0.1672 0.0264,0.33 Q 1.4872,4.5496 1.5576,4.7036 1.628,4.8576 1.738,4.9808 1.848,5.104 1.9976,5.1832 2.1472,5.2624 2.31,5.2932 2.4728,5.324 2.64,5.324 Z M 7.9112,8.5624 Q 7.6736,8.5624 7.436,8.5316 7.1984,8.5008 6.974,8.4128 6.7496,8.3248 6.5604,8.1796 6.3712,8.0344 6.2348,7.8364 6.0984,7.6384 6.0324,7.4052 5.9664,7.172 5.9664,6.9344 V 6.908 h 0.7304 v 0.0176 q 0,0.22 0.0968,0.4268 0.0968,0.2068 0.2772,0.3344 0.1804,0.1276 0.4004,0.176 0.22,0.0484 0.44,0.0484 0.1672,0 0.33,-0.0308 Q 8.404,7.8496 8.5536,7.7704 8.7032,7.6912 8.8176,7.568 8.932,7.4448 9.0024,7.2952 9.0728,7.1456 9.0992,6.9784 9.1256,6.8112 9.1256,6.644 V 5.0072 Q 9.0376,5.2272 8.8924,5.4164 8.7472,5.6056 8.5448,5.7376 8.3424,5.8696 8.1092,5.9224 7.876,5.9752 7.6296,5.9752 7.392,5.9752 7.1544,5.9224 6.9168,5.8696 6.7188,5.7376 6.5208,5.6056 6.3712,5.412 6.2216,5.2184 6.1336,4.994 6.0456,4.7696 6.0148,4.532 5.984,4.2944 5.984,4.0568 V 3.872 Q 5.984,3.6168 6.028,3.3572 6.072,3.0976 6.1908,2.8688 6.3096,2.64 6.4988,2.4552 6.688,2.2704 6.9168,2.156 7.1456,2.0416 7.4052,1.9976 7.6648,1.9536 7.92,1.9536 q 0.2552,0 0.5148,0.044 Q 8.6944,2.0416 8.9232,2.156 9.152,2.2704 9.3412,2.4552 9.5304,2.64 9.6492,2.8688 9.768,3.0976 9.812,3.3572 9.856,3.6168 9.856,3.872 v 2.772 q 0,0.2552 -0.044,0.5148 Q 9.768,7.4184 9.6492,7.6472 9.5304,7.876 9.3412,8.0608 9.152,8.2456 8.9188,8.36 8.6856,8.4744 8.426,8.5184 8.1664,8.5624 7.9112,8.5624 Z M 7.92,5.324 q 0.1672,0 0.33,-0.0308 Q 8.4128,5.2624 8.5624,5.1832 8.712,5.104 8.822,4.9808 8.932,4.8576 9.0024,4.7036 9.0728,4.5496 9.0992,4.3868 9.1256,4.224 9.1256,4.0568 V 3.872 q 0,-0.1672 -0.0264,-0.33 Q 9.0728,3.3792 9.0024,3.2252 8.932,3.0712 8.822,2.948 8.712,2.8248 8.5624,2.7456 8.4128,2.6664 8.25,2.6356 8.0872,2.6048 7.92,2.6048 7.7528,2.6048 7.59,2.6356 7.4272,2.6664 7.2776,2.7456 7.128,2.8248 7.018,2.948 6.908,3.0712 6.8376,3.2252 6.7672,3.3792 6.7408,3.542 6.7144,3.7048 6.7144,3.872 v 0.1848 q 0,0.1672 0.0264,0.33 Q 6.7672,4.5496 6.8376,4.7036 6.908,4.8576 7.018,4.9808 7.128,5.104 7.2776,5.1832 7.4272,5.2624 7.59,5.2932 7.7528,5.324 7.92,5.324 Z m 3.212,3.168 V 2.024 h 1.0824 L 13.2,6.9696 14.1856,2.024 H 15.268 V 8.492 H 14.564 V 7.1984 q 0,-0.5632 0.0088,-1.1308 Q 14.5816,5.5 14.5904,4.9368 L 14.608,4.2856 q 0.0088,-0.3608 0.0132,-0.726 0.0044,-0.3652 0.0044,-0.7348 L 13.4992,8.492 H 12.9008 L 11.7744,2.8248 q 0,0.3696 0.0044,0.7348 0.0044,0.3652 0.0132,0.726 l 0.0176,0.6512 Q 11.8184,5.5 11.8272,6.0676 11.836,6.6352 11.836,7.1984 V 8.492 Z m 5.28,0 V 2.024 h 1.0824 L 18.48,6.9696 19.4656,2.024 H 20.548 V 8.492 H 19.844 V 7.1984 q 0,-0.5632 0.0088,-1.1308 Q 19.8616,5.5 19.8704,4.9368 L 19.888,4.2856 q 0.0088,-0.3608 0.0132,-0.726 0.0044,-0.3652 0.0044,-0.7348 L 18.7792,8.492 H 18.1808 L 17.0544,2.8248 q 0,0.3696 0.0044,0.7348 0.0044,0.3652 0.0132,0.726 l 0.0176,0.6512 Q 17.0984,5.5 17.1072,6.0676 17.116,6.6352 17.116,7.1984 V 8.492 Z m 5.4824,0 V 7.8408 l 2.2792,-2.6136 q 0.132,-0.1672 0.2728,-0.33 0.1408,-0.1628 0.2508,-0.3476 0.11,-0.1848 0.1716,-0.3916 0.0616,-0.2068 0.0616,-0.4268 0,-0.2288 -0.0704,-0.4532 -0.0704,-0.2244 -0.2376,-0.3828 -0.1672,-0.1584 -0.396,-0.2244 -0.2288,-0.066 -0.4576,-0.066 -0.2112,0 -0.4268,0.0484 -0.2156,0.0484 -0.3828,0.176 -0.1672,0.1276 -0.2596,0.33 -0.0924,0.2024 -0.0924,0.4136 V 3.608 H 21.8768 V 3.5552 q 0,-0.2376 0.066,-0.462 0.066,-0.2244 0.1936,-0.418 0.1276,-0.1936 0.3168,-0.3388 0.1892,-0.1452 0.4048,-0.2332 0.2156,-0.088 0.4444,-0.1188 0.2288,-0.0308 0.4664,-0.0308 0.2464,0 0.4928,0.0396 0.2464,0.0396 0.4708,0.1408 0.2244,0.1012 0.4092,0.2684 0.1848,0.1672 0.3036,0.3828 0.1188,0.2156 0.1672,0.4576 0.0484,0.242 0.0484,0.4884 0,0.2728 -0.0704,0.5368 Q 25.52,4.532 25.388,4.7652 25.256,4.9984 25.0844,5.2096 24.9128,5.4208 24.7368,5.6232 L 24.728,5.632 q 0,0.0088 -0.0044,0.0088 -0.0044,0 -0.0044,0.0088 l -1.9096,2.2 h 2.816 V 8.492 Z m 8.3512,0 H 29.5152 V 6.7936 H 27.104 V 6.1512 L 29.348,2.024 h 0.8976 v 4.1272 h 0.66 v 0.6424 h -0.66 z M 29.5152,6.1512 V 3.1064 l -1.6544,3.0448 z m 4.708,2.3408 V 2.8072 L 33.0352,3.7488 32.6216,3.2912 34.2232,2.024 h 0.7216 v 6.468 z m 5.3944,0.0704 q -0.2288,0 -0.462,-0.0352 C 39.0001,8.50373 38.8505,8.46267 38.7068,8.404 Q 38.4912,8.316 38.3064,8.1708 38.1216,8.0256 37.9896,7.832 37.8576,7.6384 37.7916,7.414 37.7256,7.1896 37.7168,6.952 h 0.7304 q 0.0088,0.2112 0.1056,0.4092 0.0968,0.198 0.264,0.3256 0.1672,0.1276 0.3784,0.176 0.2112,0.0484 0.4224,0.0484 0.1848,0 0.3608,-0.044 0.176,-0.044 0.3212,-0.1496 Q 40.4448,7.612 40.546,7.458 40.6472,7.304 40.7044,7.1324 40.7616,6.9608 40.7836,6.7804 40.8056,6.6 40.8056,6.424 40.8056,6.2392 40.788,6.0632 40.7704,5.8872 40.7132,5.7156 40.656,5.544 40.5592,5.3944 40.4624,5.2448 40.3216,5.1348 40.1808,5.0248 40.0048,4.9764 39.8288,4.928 39.6528,4.928 q -0.1848,0 -0.3652,0.0264 -0.1804,0.0264 -0.3432,0.11 -0.1628,0.0836 -0.2772,0.2332 -0.1144,0.1496 -0.132,0.3344 H 37.8136 V 2.024 h 3.4672 v 0.6424 h -2.7456 v 1.848 q 0.2552,-0.132 0.5412,-0.1804 0.286,-0.0484 0.5764,-0.0484 0.2728,0 0.5368,0.0572 0.264,0.0572 0.4928,0.198 0.2288,0.1408 0.4004,0.3564 0.1716,0.2156 0.2728,0.4664 0.1012,0.2508 0.1408,0.5192 0.0396,0.2684 0.0396,0.5412 0,0.2728 -0.0396,0.5412 -0.0396,0.2684 -0.1452,0.5192 -0.1056,0.2508 -0.2816,0.4664 -0.176,0.2156 -0.4092,0.3564 -0.2332,0.1408 -0.5016,0.198 -0.2684,0.0572 -0.5412,0.0572 z M 44.7832,8.492 V 2.8072 L 43.5952,3.7488 43.1816,3.2912 44.7832,2.024 h 0.7216 v 6.468 z m 3.3088,0 V 2.024 h 1.0824 L 50.16,6.9696 51.1456,2.024 H 52.228 V 8.492 H 51.524 V 7.1984 q 0,-0.5632 0.0088,-1.1308 Q 51.5416,5.5 51.5504,4.9368 L 51.568,4.2856 q 0.0088,-0.3608 0.0132,-0.726 0.0044,-0.3652 0.0044,-0.7348 L 50.4592,8.492 H 49.8608 L 48.7344,2.8248 q 0,0.3696 0.0044,0.7348 0.0044,0.3652 0.0132,0.726 l 0.0176,0.6512 Q 48.7784,5.5 48.7872,6.0676 48.796,6.6352 48.796,7.1984 V 8.492 Z m 5.4824,0 V 7.8408 l 2.2792,-2.6136 q 0.132,-0.1672 0.2728,-0.33 0.1408,-0.1628 0.2508,-0.3476 0.11,-0.1848 0.1716,-0.3916 0.0616,-0.2068 0.0616,-0.4268 0,-0.2288 -0.0704,-0.4532 -0.0704,-0.2244 -0.2376,-0.3828 -0.1672,-0.1584 -0.396,-0.2244 -0.2288,-0.066 -0.4576,-0.066 -0.2112,0 -0.4268,0.0484 -0.2156,0.0484 -0.3828,0.176 -0.1672,0.1276 -0.2596,0.33 -0.0924,0.2024 -0.0924,0.4136 V 3.608 H 53.5568 V 3.5552 q 0,-0.2376 0.066,-0.462 0.066,-0.2244 0.1936,-0.418 0.1276,-0.1936 0.3168,-0.3388 0.1892,-0.1452 0.4048,-0.2332 0.2156,-0.088 0.4444,-0.1188 0.2288,-0.0308 0.4664,-0.0308 0.2464,0 0.4928,0.0396 0.2464,0.0396 0.4708,0.1408 0.2244,0.1012 0.4092,0.2684 0.1848,0.1672 0.3036,0.3828 0.1188,0.2156 0.1672,0.4576 0.0484,0.242 0.0484,0.4884 0,0.2728 -0.0704,0.5368 Q 57.2,4.532 57.068,4.7652 56.936,4.9984 56.7644,5.2096 56.5928,5.4208 56.4168,5.6232 L 56.408,5.632 q 0,0.0088 -0.0044,0.0088 -0.0044,0 -0.0044,0.0088 l -1.9096,2.2 h 2.816 V 8.492 Z m 7.1632,0.0704 q -0.2288,0 -0.462,-0.0352 C 60.1201,8.50373 59.9705,8.46267 59.8268,8.404 Q 59.6112,8.316 59.4264,8.1708 59.2416,8.0256 59.1096,7.832 58.9776,7.6384 58.9116,7.414 58.8456,7.1896 58.8368,6.952 h 0.7304 q 0.0088,0.2112 0.1056,0.4092 0.0968,0.198 0.264,0.3256 0.1672,0.1276 0.3784,0.176 0.2112,0.0484 0.4224,0.0484 0.1848,0 0.3608,-0.044 0.176,-0.044 0.3212,-0.1496 Q 61.5648,7.612 61.666,7.458 61.7672,7.304 61.8244,7.1324 61.8816,6.9608 61.9036,6.7804 61.9256,6.6 61.9256,6.424 61.9256,6.2392 61.908,6.0632 61.8904,5.8872 61.8332,5.7156 61.776,5.544 61.6792,5.3944 61.5824,5.2448 61.4416,5.1348 61.3008,5.0248 61.1248,4.9764 60.9488,4.928 60.7728,4.928 q -0.1848,0 -0.3652,0.0264 -0.1804,0.0264 -0.3432,0.11 -0.1628,0.0836 -0.2772,0.2332 -0.1144,0.1496 -0.132,0.3344 H 58.9336 V 2.024 h 3.4672 v 0.6424 h -2.7456 v 1.848 q 0.2552,-0.132 0.5412,-0.1804 0.286,-0.0484 0.5764,-0.0484 0.2728,0 0.5368,0.0572 0.264,0.0572 0.4928,0.198 0.2288,0.1408 0.4004,0.3564 0.1716,0.2156 0.2728,0.4664 0.1012,0.2508 0.1408,0.5192 0.0396,0.2684 0.0396,0.5412 0,0.2728 -0.0396,0.5412 -0.0396,0.2684 -0.1452,0.5192 -0.1056,0.2508 -0.2816,0.4664 -0.176,0.2156 -0.4092,0.3564 -0.2332,0.1408 -0.5016,0.198 -0.2684,0.0572 -0.5412,0.0572 z M 67.2056,8.492 H 66.4752 V 6.7936 H 64.064 V 6.1512 L 66.308,2.024 h 0.8976 v 4.1272 h 0.66 v 0.6424 h -0.66 z M 66.4752,6.1512 V 3.1064 l -1.6544,3.0448 z m 4.8312,2.4112 q -0.2376,0 -0.4796,-0.0308 Q 70.5848,8.5008 70.3604,8.4172 70.136,8.3336 69.938,8.1884 69.74,8.0432 69.6036,7.8496 69.4672,7.656 69.3968,7.4228 69.3264,7.1896 69.3264,6.9432 V 6.908 h 0.7304 v 0.0264 q 0,0.22 0.1056,0.4268 0.1056,0.2068 0.2904,0.3344 0.1848,0.1276 0.4048,0.1716 0.22,0.044 0.4488,0.044 0.2376,0 0.4752,-0.0616 Q 72.0192,7.788 72.1996,7.634 72.38,7.48 72.468,7.2512 72.556,7.0224 72.556,6.7848 72.556,6.5824 72.4988,6.3888 72.4416,6.1952 72.3228,6.0368 72.204,5.8784 72.0412,5.7596 71.8784,5.6408 71.6936,5.5748 71.5088,5.5088 71.3064,5.4912 71.104,5.4736 70.9104,5.4736 V 4.8312 q 0.176,0 0.3608,-0.0132 0.1848,-0.0132 0.3564,-0.0748 0.1716,-0.0616 0.3212,-0.1672 0.1496,-0.1056 0.2552,-0.2552 0.1056,-0.1496 0.1584,-0.3256 0.0528,-0.176 0.0528,-0.3608 0,-0.22 -0.0792,-0.4224 Q 72.2568,3.0096 72.0984,2.8644 71.94,2.7192 71.7288,2.662 71.5176,2.6048 71.3064,2.6048 q -0.2112,0 -0.418,0.0484 -0.2068,0.0484 -0.3652,0.1804 -0.1584,0.132 -0.242,0.33 -0.0836,0.198 -0.0836,0.4092 V 3.608 H 69.4672 V 3.5464 q 0,-0.2288 0.0616,-0.4532 0.0616,-0.2244 0.1848,-0.418 0.1232,-0.1936 0.3036,-0.3388 0.1804,-0.1452 0.3916,-0.2332 0.2112,-0.088 0.44,-0.1188 0.2288,-0.0308 0.4576,-0.0308 0.2376,0 0.4664,0.0352 0.2288,0.0352 0.4444,0.132 0.2156,0.0968 0.396,0.2508 0.1804,0.154 0.2992,0.3564 0.1188,0.2024 0.176,0.4312 0.0572,0.2288 0.0572,0.4576 0,0.2464 -0.0704,0.484 -0.0704,0.2376 -0.2068,0.44 -0.1364,0.2024 -0.33,0.3564 -0.1936,0.154 -0.4224,0.2508 0.2552,0.088 0.4752,0.2508 0.22,0.1628 0.3784,0.3828 0.1584,0.22 0.2376,0.484 0.0792,0.264 0.0792,0.528 0,0.2552 -0.066,0.4972 -0.066,0.242 -0.1936,0.4576 -0.1276,0.2156 -0.3212,0.3784 -0.1936,0.1628 -0.4224,0.2596 -0.2288,0.0968 -0.4796,0.1364 -0.2508,0.0396 -0.4972,0.0396 z m 5.2536,0 q -0.2552,0 -0.5148,-0.044 Q 75.7856,8.4744 75.5568,8.36 75.328,8.2456 75.1388,8.0608 74.9496,7.876 74.8308,7.6472 74.712,7.4184 74.668,7.1588 74.624,6.8992 74.624,6.644 V 3.872 q 0,-0.2552 0.044,-0.5148 0.044,-0.2596 0.1628,-0.4884 0.1188,-0.2288 0.308,-0.4136 0.1892,-0.1848 0.4224,-0.2992 0.2332,-0.1144 0.4928,-0.1584 0.2596,-0.044 0.5148,-0.044 0.2376,0 0.4752,0.0308 0.2376,0.0308 0.462,0.1188 0.2244,0.088 0.4136,0.2332 0.1892,0.1452 0.3256,0.3432 0.1364,0.198 0.2024,0.4312 0.066,0.2332 0.066,0.4708 V 3.608 H 77.7832 V 3.5904 q 0,-0.22 -0.0968,-0.4268 -0.0968,-0.2068 -0.2772,-0.3344 -0.1804,-0.1276 -0.4004,-0.176 -0.22,-0.0484 -0.44,-0.0484 -0.1672,0 -0.33,0.0308 -0.1628,0.0308 -0.3124,0.11 -0.1496,0.0792 -0.264,0.2024 -0.1144,0.1232 -0.1848,0.2728 -0.0704,0.1496 -0.0968,0.3168 -0.0264,0.1672 -0.0264,0.3344 v 1.6368 q 0.088,-0.22 0.2332,-0.4092 0.1452,-0.1892 0.3476,-0.3212 0.2024,-0.132 0.4356,-0.1848 0.2332,-0.0528 0.4796,-0.0528 0.2376,0 0.4752,0.0528 0.2376,0.0528 0.4356,0.1848 0.198,0.132 0.3476,0.3256 0.1496,0.1936 0.2376,0.418 0.088,0.2244 0.1188,0.462 0.0308,0.2376 0.0308,0.4752 V 6.644 q 0,0.2552 -0.044,0.5148 -0.044,0.2596 -0.1628,0.4884 -0.1188,0.2288 -0.308,0.4136 -0.1892,0.1848 -0.418,0.2992 -0.2288,0.1144 -0.4884,0.1584 -0.2596,0.044 -0.5148,0.044 z m 0,-0.6512 q 0.1672,0 0.33,-0.0308 0.1628,-0.0308 0.3124,-0.11 0.1496,-0.0792 0.2596,-0.2024 0.11,-0.1232 0.1804,-0.2772 0.0704,-0.154 0.0968,-0.3168 0.0264,-0.1628 0.0264,-0.33 V 6.4592 q 0,-0.1672 -0.0264,-0.33 Q 77.7128,5.9664 77.6424,5.8124 77.572,5.6584 77.462,5.5352 77.352,5.412 77.2024,5.3328 77.0528,5.2536 76.89,5.2228 76.7272,5.192 76.56,5.192 q -0.1672,0 -0.33,0.0308 -0.1628,0.0308 -0.3124,0.11 -0.1496,0.0792 -0.2596,0.2024 -0.11,0.1232 -0.1804,0.2772 -0.0704,0.154 -0.0968,0.3168 -0.0264,0.1628 -0.0264,0.33 V 6.644 q 0,0.1672 0.0264,0.33 0.0264,0.1628 0.0968,0.3168 0.0704,0.154 0.1804,0.2772 0.11,0.1232 0.2596,0.2024 0.1496,0.0792 0.3124,0.11 0.1628,0.0308 0.33,0.0308 z m 5.28,0.6512 q -0.2552,0 -0.5148,-0.044 Q 81.0656,8.4744 80.8368,8.36 80.608,8.2456 80.4188,8.0608 80.2296,7.876 80.1108,7.6472 79.992,7.4184 79.948,7.1588 79.904,6.8992 79.904,6.644 V 3.872 q 0,-0.2552 0.044,-0.5148 0.044,-0.2596 0.1628,-0.4884 0.1188,-0.2288 0.308,-0.4136 0.1892,-0.1848 0.418,-0.2992 0.2288,-0.1144 0.4884,-0.1584 0.2596,-0.044 0.5148,-0.044 0.2552,0 0.5148,0.044 0.2596,0.044 0.4884,0.1584 0.2288,0.1144 0.418,0.2992 0.1892,0.1848 0.308,0.4136 0.1188,0.2288 0.1628,0.4884 0.044,0.2596 0.044,0.5148 v 2.772 q 0,0.2552 -0.044,0.5148 -0.044,0.2596 -0.1628,0.4884 -0.1188,0.2288 -0.308,0.4136 -0.1892,0.1848 -0.418,0.2992 -0.2288,0.1144 -0.4884,0.1584 -0.2596,0.044 -0.5148,0.044 z m 0,-0.6512 q 0.1672,0 0.33,-0.0308 0.1628,-0.0308 0.3124,-0.11 0.1496,-0.0792 0.2596,-0.2024 0.11,-0.1232 0.1804,-0.2772 0.0704,-0.154 0.0968,-0.3168 0.0264,-0.1628 0.0264,-0.33 V 3.872 q 0,-0.1672 -0.0264,-0.33 Q 82.9928,3.3792 82.9224,3.2252 82.852,3.0712 82.742,2.948 82.632,2.8248 82.4824,2.7456 82.3328,2.6664 82.17,2.6356 82.0072,2.6048 81.84,2.6048 q -0.1672,0 -0.33,0.0308 -0.1628,0.0308 -0.3124,0.11 -0.1496,0.0792 -0.2596,0.2024 -0.11,0.1232 -0.1804,0.2772 -0.0704,0.154 -0.0968,0.3168 -0.0264,0.1628 -0.0264,0.33 v 2.772 q 0,0.1672 0.0264,0.33 0.0264,0.1628 0.0968,0.3168 0.0704,0.154 0.1804,0.2772 0.11,0.1232 0.2596,0.2024 0.1496,0.0792 0.3124,0.11 0.1628,0.0308 0.33,0.0308 z m 0,-2.1032 q -0.1144,0 -0.22,-0.0352 -0.1056,-0.0352 -0.1848,-0.11 -0.0792,-0.0748 -0.11,-0.1848 -0.0308,-0.11 -0.0308,-0.2244 0,-0.1056 0.0308,-0.2156 0.0308,-0.11 0.11,-0.1848 0.0792,-0.0748 0.1848,-0.11 0.1056,-0.0352 0.22,-0.0352 0.1144,0 0.22,0.0352 0.1056,0.0352 0.1848,0.11 0.0792,0.0748 0.1144,0.1848 0.0352,0.11 0.0352,0.2156 0,0.1144 -0.0352,0.2244 -0.0352,0.11 -0.1144,0.1848 -0.0792,0.0748 -0.1848,0.11 -0.1056,0.0352 -0.22,0.0352 z m 5.28,2.7544 q -0.2552,0 -0.5148,-0.044 Q 86.3456,8.4744 86.1168,8.36 85.888,8.2456 85.6988,8.0608 85.5096,7.876 85.3908,7.6472 85.272,7.4184 85.228,7.1588 85.184,6.8992 85.184,6.644 V 3.872 q 0,-0.2552 0.044,-0.5148 0.044,-0.2596 0.1628,-0.4884 0.1188,-0.2288 0.308,-0.4136 0.1892,-0.1848 0.4224,-0.2992 0.2332,-0.1144 0.4928,-0.1584 0.2596,-0.044 0.5148,-0.044 0.2376,0 0.4752,0.0308 0.2376,0.0308 0.462,0.1188 0.2244,0.088 0.4136,0.2332 0.1892,0.1452 0.3256,0.3432 0.1364,0.198 0.2024,0.4312 0.066,0.2332 0.066,0.4708 V 3.608 H 88.3432 V 3.5904 q 0,-0.22 -0.0968,-0.4268 -0.0968,-0.2068 -0.2772,-0.3344 -0.1804,-0.1276 -0.4004,-0.176 -0.22,-0.0484 -0.44,-0.0484 -0.1672,0 -0.33,0.0308 -0.1628,0.0308 -0.3124,0.11 -0.1496,0.0792 -0.264,0.2024 -0.1144,0.1232 -0.1848,0.2728 -0.0704,0.1496 -0.0968,0.3168 -0.0264,0.1672 -0.0264,0.3344 v 1.6368 q 0.088,-0.22 0.2332,-0.4092 0.1452,-0.1892 0.3476,-0.3212 0.2024,-0.132 0.4356,-0.1848 0.2332,-0.0528 0.4796,-0.0528 0.2376,0 0.4752,0.0528 0.2376,0.0528 0.4356,0.1848 0.198,0.132 0.3476,0.3256 0.1496,0.1936 0.2376,0.418 0.088,0.2244 0.1188,0.462 0.0308,0.2376 0.0308,0.4752 V 6.644 q 0,0.2552 -0.044,0.5148 -0.044,0.2596 -0.1628,0.4884 -0.1188,0.2288 -0.308,0.4136 -0.1892,0.1848 -0.418,0.2992 -0.2288,0.1144 -0.4884,0.1584 -0.2596,0.044 -0.5148,0.044 z m 0,-0.6512 q 0.1672,0 0.33,-0.0308 0.1628,-0.0308 0.3124,-0.11 0.1496,-0.0792 0.2596,-0.2024 0.11,-0.1232 0.1804,-0.2772 0.0704,-0.154 0.0968,-0.3168 0.0264,-0.1628 0.0264,-0.33 V 6.4592 q 0,-0.1672 -0.0264,-0.33 Q 88.2728,5.9664 88.2024,5.8124 88.132,5.6584 88.022,5.5352 87.912,5.412 87.7624,5.3328 87.6128,5.2536 87.45,5.2228 87.2872,5.192 87.12,5.192 q -0.1672,0 -0.33,0.0308 -0.1628,0.0308 -0.3124,0.11 -0.1496,0.0792 -0.2596,0.2024 -0.11,0.1232 -0.1804,0.2772 -0.0704,0.154 -0.0968,0.3168 -0.0264,0.1628 -0.0264,0.33 V 6.644 q 0,0.1672 0.0264,0.33 0.0264,0.1628 0.0968,0.3168 0.0704,0.154 0.1804,0.2772 0.11,0.1232 0.2596,0.2024 0.1496,0.0792 0.3124,0.11 0.1628,0.0308 0.33,0.0308 z m 5.28,0.6512 q -0.2552,0 -0.5148,-0.044 Q 91.6256,8.4744 91.3968,8.36 91.168,8.2456 90.9788,8.0608 90.7896,7.876 90.6708,7.6472 90.552,7.4184 90.508,7.1588 90.464,6.8992 90.464,6.644 V 3.872 q 0,-0.2552 0.044,-0.5148 0.044,-0.2596 0.1628,-0.4884 0.1188,-0.2288 0.308,-0.4136 0.1892,-0.1848 0.4224,-0.2992 0.2332,-0.1144 0.4928,-0.1584 0.2596,-0.044 0.5148,-0.044 0.2376,0 0.4752,0.0308 0.2376,0.0308 0.462,0.1188 0.2244,0.088 0.4136,0.2332 0.1892,0.1452 0.3256,0.3432 0.1364,0.198 0.2024,0.4312 0.066,0.2332 0.066,0.4708 V 3.608 H 93.6232 V 3.5904 q 0,-0.22 -0.0968,-0.4268 -0.0968,-0.2068 -0.2772,-0.3344 -0.1804,-0.1276 -0.4004,-0.176 -0.22,-0.0484 -0.44,-0.0484 -0.1672,0 -0.33,0.0308 -0.1628,0.0308 -0.3124,0.11 -0.1496,0.0792 -0.264,0.2024 -0.1144,0.1232 -0.1848,0.2728 -0.0704,0.1496 -0.0968,0.3168 -0.0264,0.1672 -0.0264,0.3344 v 1.6368 q 0.088,-0.22 0.2332,-0.4092 0.1452,-0.1892 0.3476,-0.3212 0.2024,-0.132 0.4356,-0.1848 0.2332,-0.0528 0.4796,-0.0528 0.2376,0 0.4752,0.0528 0.2376,0.0528 0.4356,0.1848 0.198,0.132 0.3476,0.3256 0.1496,0.1936 0.2376,0.418 0.088,0.2244 0.1188,0.462 0.0308,0.2376 0.0308,0.4752 V 6.644 q 0,0.2552 -0.044,0.5148 Q 94.248,7.4184 94.1292,7.6472 94.0104,7.876 93.8212,8.0608 93.632,8.2456 93.4032,8.36 93.1744,8.4744 92.9148,8.5184 92.6552,8.5624 92.4,8.5624 Z m 0,-0.6512 q 0.1672,0 0.33,-0.0308 0.1628,-0.0308 0.3124,-0.11 0.1496,-0.0792 0.2596,-0.2024 0.11,-0.1232 0.1804,-0.2772 0.0704,-0.154 0.0968,-0.3168 0.0264,-0.1628 0.0264,-0.33 V 6.4592 q 0,-0.1672 -0.0264,-0.33 Q 93.5528,5.9664 93.4824,5.8124 93.412,5.6584 93.302,5.5352 93.192,5.412 93.0424,5.3328 92.8928,5.2536 92.73,5.2228 92.5672,5.192 92.4,5.192 q -0.1672,0 -0.33,0.0308 -0.1628,0.0308 -0.3124,0.11 -0.1496,0.0792 -0.2596,0.2024 -0.11,0.1232 -0.1804,0.2772 -0.0704,0.154 -0.0968,0.3168 -0.0264,0.1628 -0.0264,0.33 V 6.644 q 0,0.1672 0.0264,0.33 0.0264,0.1628 0.0968,0.3168 0.0704,0.154 0.1804,0.2772 0.11,0.1232 0.2596,0.2024 0.1496,0.0792 0.3124,0.11 0.1628,0.0308 0.33,0.0308 z m 5.28,1.3992 q -0.2728,0 -0.5368,-0.0352 Q 96.8792,9.24 96.6284,9.1388 96.3776,9.0376 96.1664,8.866 95.9552,8.6944 95.8144,8.4656 95.6736,8.2368 95.612,7.9728 95.5504,7.7088 95.5504,7.4448 V 3.5552 q 0,-0.264 0.0616,-0.528 0.0616,-0.264 0.2024,-0.4928 0.1408,-0.2288 0.352,-0.4004 0.2112,-0.1716 0.462,-0.2728 0.2508,-0.1012 0.5148,-0.1364 0.264,-0.0352 0.5368,-0.0352 0.2728,0 0.5368,0.0352 0.264,0.0352 0.5148,0.1364 0.2508,0.1012 0.462,0.2728 0.2112,0.1716 0.352,0.4004 0.1408,0.2288 0.2024,0.4928 0.0616,0.264 0.0616,0.528 v 3.3 q 0,0.1848 -0.0704,0.3696 -0.0704,0.1848 -0.22,0.308 Q 99.3696,7.656 99.1804,7.7 98.9912,7.744 98.7976,7.744 h -1.144 q -0.1232,0 -0.2332,-0.0704 Q 97.3104,7.6032 97.2532,7.4888 97.196,7.3744 97.174,7.2512 97.152,7.128 97.152,7.0048 V 4.3736 q 0,-0.1408 0.022,-0.2728 0.022,-0.132 0.0792,-0.2552 0.0572,-0.1232 0.176,-0.2068 0.1188,-0.0836 0.2508,-0.0836 0.132,0 0.2508,0.0836 0.1188,0.0836 0.176,0.2068 0.0572,0.1232 0.0792,0.2552 0.022,0.132 0.022,0.2728 v 2.7808 h 0.5896 q 0.0616,0 0.1276,-0.0176 0.066,-0.0176 0.1144,-0.0572 Q 99.088,7.04 99.11,6.9784 99.132,6.9168 99.132,6.8552 v -3.3 Q 99.132,3.3704 99.0924,3.19 99.0528,3.0096 98.956,2.8556 98.8592,2.7016 98.714,2.5872 98.5688,2.4728 98.3972,2.4024 98.2256,2.332 98.0452,2.3056 97.8648,2.2792 97.68,2.2792 q -0.1848,0 -0.3652,0.0264 Q 97.1344,2.332 96.9628,2.4024 96.7912,2.4728 96.646,2.5872 96.5008,2.7016 96.404,2.8556 96.3072,3.0096 96.2676,3.19 96.228,3.3704 96.228,3.5552 v 3.8896 q 0,0.176 0.0396,0.352 0.0396,0.176 0.1408,0.3256 0.1012,0.1496 0.2508,0.2596 c 0.0997,0.07333 0.2053,0.132 0.3168,0.176 q 0.1672,0.066 0.3476,0.088 0.1804,0.022 0.3564,0.022 h 1.804 v 0.6424 z m 5.606,-0.748 q -0.238,0 -0.471,-0.0528 -0.233,-0.0528 -0.427,-0.1848 -0.194,-0.132 -0.339,-0.3212 -0.145,-0.1892 -0.224,-0.4004 V 8.492 h -0.731 V 2.024 h 0.731 v 2.7808 q 0.079,-0.2112 0.224,-0.4004 0.145,-0.1892 0.339,-0.3212 0.194,-0.132 0.427,-0.1848 0.233,-0.0528 0.471,-0.0528 0.237,0 0.47,0.0572 0.234,0.0572 0.427,0.1892 0.194,0.132 0.339,0.3256 0.145,0.1936 0.229,0.4136 0.083,0.22 0.114,0.4576 0.031,0.2376 0.031,0.4752 v 0.88 q 0,0.2376 -0.031,0.4752 -0.031,0.2376 -0.114,0.4576 -0.084,0.22 -0.229,0.4136 -0.145,0.1936 -0.339,0.3256 -0.193,0.132 -0.427,0.1892 -0.233,0.0572 -0.47,0.0572 z m -0.291,-0.6512 q 0.167,0 0.33,-0.0308 0.163,-0.0308 0.304,-0.1144 0.141,-0.0836 0.251,-0.2068 0.11,-0.1232 0.176,-0.2728 0.066,-0.1496 0.088,-0.3124 0.022,-0.1628 0.022,-0.33 v -0.88 q 0,-0.1672 -0.022,-0.33 -0.022,-0.1628 -0.088,-0.3124 -0.066,-0.1496 -0.176,-0.2728 -0.11,-0.1232 -0.251,-0.2068 -0.141,-0.0836 -0.304,-0.1144 -0.163,-0.0308 -0.33,-0.0308 -0.167,0 -0.33,0.0308 -0.163,0.0308 -0.303,0.1144 -0.141,0.0836 -0.251,0.2068 -0.11,0.1232 -0.176,0.2728 -0.066,0.1496 -0.088,0.3124 -0.022,0.1628 -0.022,0.33 v 0.88 q 0,0.1672 0.022,0.33 0.022,0.1628 0.088,0.3124 0.066,0.1496 0.176,0.2728 0.11,0.1232 0.251,0.2068 0.14,0.0836 0.303,0.1144 0.163,0.0308 0.33,0.0308 z m 4.823,0.5808 -1.69,-4.576 h 0.792 l 1.056,3.0536 q 0.07,0.1936 0.136,0.3916 0.066,0.198 0.128,0.3916 0.062,-0.1936 0.128,-0.3916 0.066,-0.198 0.136,-0.3916 L 109.56,3.916 h 0.792 l -1.69,4.576 z m 6.028,0.0704 q -0.238,0 -0.471,-0.0528 -0.233,-0.0528 -0.427,-0.1848 -0.194,-0.132 -0.339,-0.3212 -0.145,-0.1892 -0.224,-0.4004 V 8.492 h -0.731 V 2.024 h 0.731 v 2.7808 q 0.079,-0.2112 0.224,-0.4004 0.145,-0.1892 0.339,-0.3212 0.194,-0.132 0.427,-0.1848 0.233,-0.0528 0.471,-0.0528 0.237,0 0.47,0.0572 0.234,0.0572 0.427,0.1892 0.194,0.132 0.339,0.3256 0.145,0.1936 0.229,0.4136 0.083,0.22 0.114,0.4576 0.031,0.2376 0.031,0.4752 v 0.88 q 0,0.2376 -0.031,0.4752 -0.031,0.2376 -0.114,0.4576 -0.084,0.22 -0.229,0.4136 -0.145,0.1936 -0.339,0.3256 -0.193,0.132 -0.427,0.1892 -0.233,0.0572 -0.47,0.0572 z m -0.291,-0.6512 q 0.167,0 0.33,-0.0308 0.163,-0.0308 0.304,-0.1144 0.141,-0.0836 0.251,-0.2068 0.11,-0.1232 0.176,-0.2728 0.066,-0.1496 0.088,-0.3124 0.022,-0.1628 0.022,-0.33 v -0.88 q 0,-0.1672 -0.022,-0.33 -0.022,-0.1628 -0.088,-0.3124 -0.066,-0.1496 -0.176,-0.2728 -0.11,-0.1232 -0.251,-0.2068 -0.141,-0.0836 -0.304,-0.1144 -0.163,-0.0308 -0.33,-0.0308 -0.167,0 -0.33,0.0308 -0.163,0.0308 -0.303,0.1144 -0.141,0.0836 -0.251,0.2068 -0.11,0.1232 -0.176,0.2728 -0.066,0.1496 -0.088,0.3124 -0.022,0.1628 -0.022,0.33 v 0.88 q 0,0.1672 0.022,0.33 0.022,0.1628 0.088,0.3124 0.066,0.1496 0.176,0.2728 0.11,0.1232 0.251,0.2068 0.14,0.0836 0.303,0.1144 0.163,0.0308 0.33,0.0308 z m 4.919,0.6512 q -0.193,0 -0.391,-0.0264 -0.198,-0.0264 -0.383,-0.0924 -0.185,-0.066 -0.348,-0.1804 -0.162,-0.1144 -0.277,-0.2728 -0.114,-0.1584 -0.163,-0.352 -0.048,-0.1936 -0.048,-0.396 0,-0.2376 0.079,-0.4708 0.079,-0.2332 0.247,-0.4092 0.167,-0.176 0.387,-0.286 0.22,-0.11 0.453,-0.176 0.233,-0.066 0.475,-0.088 0.242,-0.022 0.48,-0.022 h 0.959 v -0.352 q 0,-0.1408 -0.035,-0.2816 -0.035,-0.1408 -0.115,-0.2552 -0.079,-0.1144 -0.198,-0.198 -0.118,-0.0836 -0.25,-0.132 -0.132,-0.0484 -0.273,-0.066 -0.141,-0.0176 -0.282,-0.0176 -0.123,0 -0.251,0.0088 -0.127,0.0088 -0.246,0.0396 -0.119,0.0308 -0.238,0.0792 -0.118,0.0484 -0.211,0.132 -0.092,0.0836 -0.149,0.198 -0.058,0.1144 -0.058,0.2376 V 5.192 h -0.721 V 5.1744 q 0,-0.2112 0.079,-0.418 0.079,-0.2068 0.22,-0.3652 0.141,-0.1584 0.33,-0.2684 0.189,-0.11 0.396,-0.1716 0.207,-0.0616 0.418,-0.0836 0.211,-0.022 0.431,-0.022 0.229,0 0.462,0.0308 0.233,0.0308 0.449,0.1144 0.216,0.0836 0.409,0.2244 0.194,0.1408 0.321,0.3344 0.128,0.1936 0.181,0.4268 0.053,0.2332 0.053,0.462 V 8.492 h -0.722 V 7.6912 q -0.088,0.2112 -0.242,0.3828 -0.154,0.1716 -0.352,0.286 -0.198,0.1144 -0.422,0.1584 -0.225,0.044 -0.454,0.044 z M 118.756,7.92 q 0.158,0 0.308,-0.022 0.15,-0.022 0.29,-0.0836 0.141,-0.0616 0.26,-0.1628 0.119,-0.1012 0.194,-0.2332 0.074,-0.132 0.105,-0.286 0.031,-0.154 0.031,-0.3036 v -0.396 h -0.959 q -0.141,0 -0.291,0.0088 -0.149,0.0088 -0.294,0.0352 -0.146,0.0264 -0.282,0.0748 -0.136,0.0484 -0.26,0.1276 -0.123,0.0792 -0.198,0.2112 -0.074,0.132 -0.074,0.2816 0,0.132 0.052,0.2508 0.053,0.1188 0.146,0.2112 0.092,0.0924 0.211,0.1452 0.119,0.0528 0.246,0.088 0.128,0.0352 0.255,0.044 0.128,0.0088 0.26,0.0088 z m 3.458,0.572 V 3.916 h 0.731 v 0.88 q 0.079,-0.2112 0.22,-0.396 0.141,-0.1848 0.33,-0.3168 0.189,-0.132 0.413,-0.1848 0.225,-0.0528 0.462,-0.0528 0.229,0 0.462,0.0572 0.234,0.0572 0.427,0.1936 0.194,0.1364 0.33,0.33 0.137,0.1936 0.216,0.4136 0.079,0.22 0.11,0.4532 0.031,0.2332 0.031,0.4708 v 2.728 h -0.731 V 5.764 q 0,-0.1584 -0.022,-0.3212 Q 125.171,5.28 125.11,5.1304 125.048,4.9808 124.942,4.8532 124.837,4.7256 124.7,4.642 124.564,4.5584 124.401,4.5276 124.238,4.4968 124.08,4.4968 q -0.158,0 -0.321,0.0308 -0.163,0.0308 -0.299,0.1144 -0.137,0.0836 -0.242,0.2112 -0.106,0.1276 -0.168,0.2772 -0.061,0.1496 -0.083,0.3124 -0.022,0.1628 -0.022,0.3212 v 2.728 z m 8.237,0 -1.487,-1.9976 -0.581,0.6336 v 1.364 h -0.721 V 2.024 h 0.721 v 4.1624 l 2.015,-2.2704 h 0.924 l -1.9,2.0856 1.9,2.4904 z m 4.189,0.0704 q -0.141,0 -0.273,-0.0396 -0.132,-0.0396 -0.233,-0.1408 -0.101,-0.1012 -0.141,-0.2332 -0.039,-0.132 -0.039,-0.2728 0,-0.1408 0.039,-0.2728 0.04,-0.132 0.141,-0.2332 0.101,-0.1012 0.233,-0.1408 0.132,-0.0396 0.273,-0.0396 0.141,0 0.273,0.0396 0.132,0.0396 0.233,0.1408 0.101,0.1012 0.141,0.2332 0.039,0.132 0.039,0.2728 0,0.1408 -0.039,0.2728 -0.04,0.132 -0.141,0.2332 -0.101,0.1012 -0.233,0.1408 -0.132,0.0396 -0.273,0.0396 z M 138.054,8.492 V 3.916 h 0.731 v 0.88 q 0.079,-0.2112 0.22,-0.396 0.141,-0.1848 0.33,-0.3168 0.189,-0.132 0.413,-0.1848 0.225,-0.0528 0.462,-0.0528 0.229,0 0.462,0.0572 0.234,0.0572 0.427,0.1936 0.194,0.1364 0.33,0.33 0.137,0.1936 0.216,0.4136 0.079,0.22 0.11,0.4532 0.031,0.2332 0.031,0.4708 v 2.728 h -0.731 V 5.764 q 0,-0.1584 -0.022,-0.3212 Q 141.011,5.28 140.95,5.1304 140.888,4.9808 140.782,4.8532 140.677,4.7256 140.54,4.642 140.404,4.5584 140.241,4.5276 140.078,4.4968 139.92,4.4968 q -0.158,0 -0.321,0.0308 -0.163,0.0308 -0.299,0.1144 -0.137,0.0836 -0.242,0.2112 -0.106,0.1276 -0.168,0.2772 -0.061,0.1496 -0.083,0.3124 -0.022,0.1628 -0.022,0.3212 v 2.728 z m 7.146,0.0704 q -0.255,0 -0.515,-0.044 Q 144.426,8.4744 144.197,8.36 143.968,8.2456 143.779,8.0608 143.59,7.876 143.471,7.6472 143.352,7.4184 143.308,7.1588 143.264,6.8992 143.264,6.644 v -0.88 q 0,-0.2552 0.044,-0.5148 0.044,-0.2596 0.163,-0.4884 0.119,-0.2288 0.308,-0.4136 0.189,-0.1848 0.418,-0.2992 0.229,-0.1144 0.488,-0.1584 0.26,-0.044 0.515,-0.044 0.255,0 0.515,0.044 0.259,0.044 0.488,0.1584 0.229,0.1144 0.418,0.2992 0.189,0.1848 0.308,0.4136 0.119,0.2288 0.163,0.4884 0.044,0.2596 0.044,0.5148 v 0.7568 h -3.15 V 6.644 q 0,0.1672 0.026,0.3344 0.026,0.1672 0.097,0.3168 0.07,0.1496 0.185,0.2772 0.114,0.1276 0.264,0.2068 0.149,0.0792 0.312,0.11 0.163,0.0308 0.33,0.0308 0.132,0 0.26,-0.0088 0.127,-0.0088 0.25,-0.0396 0.124,-0.0308 0.242,-0.0836 0.119,-0.0528 0.216,-0.132 0.097,-0.0792 0.158,-0.1936 0.062,-0.1144 0.071,-0.2464 h 0.721 q -0.008,0.22 -0.092,0.4268 -0.084,0.2068 -0.229,0.3652 -0.145,0.1584 -0.334,0.2684 -0.189,0.11 -0.396,0.176 -0.207,0.066 -0.427,0.088 -0.22,0.022 -0.44,0.022 z m -1.214,-2.6752 h 2.428 V 5.764 q 0,-0.1672 -0.026,-0.3344 -0.026,-0.1672 -0.097,-0.3168 -0.07,-0.1496 -0.185,-0.2772 -0.114,-0.1276 -0.259,-0.2068 -0.145,-0.0792 -0.313,-0.11 -0.167,-0.0308 -0.334,-0.0308 -0.167,0 -0.334,0.0308 -0.168,0.0308 -0.313,0.11 -0.145,0.0792 -0.259,0.2068 -0.115,0.1276 -0.185,0.2772 -0.071,0.1496 -0.097,0.3168 -0.026,0.1672 -0.026,0.3344 z m 8.36,2.6048 h -0.951 c -0.135,0 -0.268,-0.01173 -0.4,-0.0352 q -0.198,-0.0352 -0.379,-0.1232 -0.18,-0.088 -0.321,-0.2288 -0.141,-0.1408 -0.229,-0.3212 -0.088,-0.1804 -0.123,-0.3784 -0.035,-0.198 -0.035,-0.4004 V 4.5584 h -1.294 V 3.916 h 1.294 V 2.024 h 0.73 v 1.892 h 1.708 v 0.6424 h -1.708 v 2.4464 q 0,0.1672 0.04,0.3256 0.04,0.1584 0.141,0.2816 0.101,0.1232 0.259,0.176 0.159,0.0528 0.317,0.0528 h 0.951 z m 3.414,0.0704 q -0.141,0 -0.273,-0.0396 -0.132,-0.0396 -0.233,-0.1408 -0.101,-0.1012 -0.141,-0.2332 -0.039,-0.132 -0.039,-0.2728 0,-0.1408 0.039,-0.2728 0.04,-0.132 0.141,-0.2332 0.101,-0.1012 0.233,-0.1408 0.132,-0.0396 0.273,-0.0396 0.141,0 0.273,0.0396 0.132,0.0396 0.233,0.1408 0.101,0.1012 0.141,0.2332 0.039,0.132 0.039,0.2728 0,0.1408 -0.039,0.2728 -0.04,0.132 -0.141,0.2332 -0.101,0.1012 -0.233,0.1408 -0.132,0.0396 -0.273,0.0396 z m 4.858,-0.0704 -1.69,-4.576 h 0.792 l 1.056,3.0536 q 0.07,0.1936 0.136,0.3916 0.066,0.198 0.128,0.3916 0.062,-0.1936 0.128,-0.3916 0.066,-0.198 0.136,-0.3916 L 162.36,3.916 h 0.792 l -1.69,4.576 z m 3.836,0 V 3.916 h 0.731 v 0.88 q 0.079,-0.2112 0.22,-0.396 0.141,-0.1848 0.33,-0.3168 0.189,-0.132 0.413,-0.1848 0.225,-0.0528 0.462,-0.0528 0.229,0 0.462,0.0572 0.234,0.0572 0.427,0.1936 0.194,0.1364 0.33,0.33 0.137,0.1936 0.216,0.4136 0.079,0.22 0.11,0.4532 0.031,0.2332 0.031,0.4708 v 2.728 h -0.731 V 5.764 q 0,-0.1584 -0.022,-0.3212 Q 167.411,5.28 167.35,5.1304 167.288,4.9808 167.182,4.8532 167.077,4.7256 166.94,4.642 166.804,4.5584 166.641,4.5276 166.478,4.4968 166.32,4.4968 q -0.158,0 -0.321,0.0308 -0.163,0.0308 -0.299,0.1144 -0.137,0.0836 -0.242,0.2112 -0.106,0.1276 -0.168,0.2772 -0.061,0.1496 -0.083,0.3124 -0.022,0.1628 -0.022,0.3212 v 2.728 z"
       fill="#000000"
       transform="translate(20.75,193.75)"
       id="path4" />
    <path
       d="M 1.67358,2.0767 3.1853,6.82869 H 3.24332 L 4.7581,2.0767 H 6.22401 L 4.0679,8.33125 H 2.36378 L 0.204617,2.0767 Z M 6.95085,8.33125 V 3.64034 h 1.301 V 8.33125 Z M 7.6044,3.03565 q -0.28707,0 -0.49474,-0.19392 Q 6.90199,2.6478 6.90199,2.37599 q 0,-0.2718 0.20767,-0.4642 0.20767,-0.1924 0.49474,-0.1924 0.29013,0 0.4978,0.1924 0.20767,0.1924 0.20767,0.4642 0,0.27181 -0.20767,0.46574 -0.20767,0.19392 -0.4978,0.19392 z m 3.8236,5.38722 q -0.7208,0 -1.243,-0.29471 Q 9.66278,7.83345 9.38182,7.29137 9.10085,6.74929 9.10085,6.00717 q 0,-0.72379 0.28097,-1.27045 0.28096,-0.54666 0.79248,-0.85206 0.5116,-0.3054 1.2018,-0.3054 0.6199,0 1.1192,0.26264 0.4994,0.26265 0.7926,0.79251 0.2931,0.52987 0.2931,1.32695 v 0.35732 h -3.1944 v 0.00305 q 0,0.52529 0.2871,0.82763 0.287,0.30234 0.7757,0.30234 0.3267,0 0.5649,-0.13742 0.2383,-0.13743 0.336,-0.40618 l 1.2033,0.0794 Q 13.4161,7.64105 12.8572,8.03196 12.2984,8.42287 11.428,8.42287 Z M 10.3866,5.51243 h 1.9698 q -0.0031,-0.4184 -0.2688,-0.6902 -0.2657,-0.2718 -0.6902,-0.2718 -0.4336,0 -0.7115,0.28096 -0.2779,0.28097 -0.2993,0.68104 z m 6.5385,-1.87209 v 0.97727 h -0.8826 v 2.27216 q 0,0.26875 0.1222,0.36343 0.1222,0.09467 0.3176,0.09467 0.0916,0 0.1833,-0.0168 0.0916,-0.01679 0.1404,-0.02596 l 0.2047,0.96811 Q 16.9129,8.30376 16.7358,8.34499 16.5587,8.38622 16.3052,8.39538 15.5967,8.42592 15.1676,8.08846 14.7385,7.75099 14.7415,7.0608 V 4.61761 H 14.1002 V 3.64034 h 0.6413 V 2.51648 h 1.301 v 1.12386 z m 6.618,1.56364 q 0,0.83679 -0.2657,1.47201 -0.2657,0.63523 -0.7238,1.04446 l 0.8948,1.12387 H 22.2146 L 21.7107,8.22436 q -0.51,0.1924 -1.0964,0.1924 -0.8337,0 -1.4964,-0.37869 -0.6627,-0.37869 -1.0475,-1.09791 -0.3848,-0.71921 -0.3848,-1.73618 0,-1.02308 0.3848,-1.74077 0.3848,-0.71768 1.0475,-1.09485 0.6627,-0.37717 1.4964,-0.37717 0.8307,0 1.4934,0.37717 0.6628,0.37717 1.0491,1.09485 0.3863,0.71769 0.3863,1.74077 z m -3.3868,0.95284 h 1.1238 l 0.4642,0.59552 q 0.2169,-0.25958 0.3375,-0.64744 0.1206,-0.38785 0.1206,-0.90092 0,-0.9956 -0.4336,-1.51936 -0.4337,-0.52375 -1.1545,-0.52375 -0.7207,0 -1.1544,0.52375 -0.4336,0.52376 -0.4336,1.51936 0,0.99254 0.4336,1.51782 0.4337,0.52529 1.1544,0.52529 0.1802,0 0.3421,-0.0336 z m 4.3702,2.17443 V 2.0767 h 2.4676 q 1.0658,0 1.6537,0.55583 0.5879,0.55582 0.5879,1.48729 0,0.64133 -0.2855,1.09637 -0.2856,0.45505 -0.82,0.68409 l 1.3285,2.43097 h -1.4598 l -1.185,-2.21719 h -0.965 v 2.21719 z m 1.3224,-3.27997 h 0.8978 q 1.127,0 1.127,-0.93146 0,-0.96201 -1.1331,-0.96201 h -0.8917 z"
       fill="#000000"
       transform="translate(20.75,6.75)"
       id="path5" />
  </g>
</svg>
